<?xml version="1.0" encoding="UTF-8"?>
<svg xmlns="http://www.w3.org/2000/svg" xmlns:xlink="http://www.w3.org/1999/xlink" width="auto" height="auto" viewBox="0 -20 1050 600">
  <g id="bkgrd-map-grp" class="map-bkgrd">
    <path d="m153.6 211.2 1 .3.4.3-.1-.4-.5-.4-.6-.5-.4-.5.2-.5-.5-.4-.4.1-.5-.5-.2-.4-.3-.2-.5.2-.2.4h-.3l-.4-.1-.4-.2.2.4.2.1-.3.9-.3.4-.2.5.2.2.3.3.2.2-.1.3h-.5l-.2.3v.4l.1.3.3.5.2.3-.1.3h-.2l-.3-.4-.2-.2-.2.1v1l-.2.1-.4-.2-.2-.2-.3-.4-.2-.4-.6-.4-.2-.6-.2-.3h-.2l-.2.1-.1-.2-.6-.7-.5-.5-.2-.6-.6-.8-.6-.4v-.7l-.6.2-.4.6-.2.1h-.4l-.1-.4.3-.6.7-1 .3-.5.2-.9v-.7h.3l.2.6.4.4.2-.2v-.8l-.4-.9v-.6l-.3-.3-.4-.5-.5-.1v-1.1l-.2-1.4-.5-1.2-.8-.7-.8-.7-.5-1.2-.2-1.4-.4-1.3-.6-.6-.2-.5-.1-.5-.4-.7-.4-.6v-.8l-.8-.7-.4-1-.2-.7.3-.6.6-.8.4-.6-.4-2-.1-2.4.1-1.4.5-1.8.7-1 .7-1.1.3-1.2.3-.8v-.8l-.1-1 .3-1.2-.5-1.2-.6-.4.1-1-.3-.7-.2-.6-.2-.8-.3-.5-.1-.4-.2-1 .1-.6-.5-.7-.3-.4-.5-.9-.5-1-.6-.6-.4-.9v-.5l.6-.9.2-.9-.4-.8.5-1.3 1.2-1.8 1.2-1.3 1.7-1.8 1.3-1.6 1-1.2.7-1-.1-1.3-.1-1.2.3-.5.4-.5.4.6.3-.4.2-1.3.9-1.1.5-1.2.4-.8v-2l.5.1v-.7l-.4-1 .2-1v-1l-.2-.8-.3-.5-.4-.7.1-.8.4-.8.6-.8.4-.6.2-.6.1-.5-.7-1-.4-.8-.1-1.4.1-1.5-.2-.5.3-.8v-.8l.3-.7.3-1.3.4-1 1-1v-2l-.3-1 .1-.7-.5-.7.1-.9-.4-1 1.4-1.2.4-.5.6-.6 1-2 1.8-2.9v-1l.3-.3 1-.6 1.7-2 1.2-1.8.3-.6.2-.5.4-.3v-.5l.9-2 .2-.6.7-1.4 1.1-3 .7-1.4.6-1.2.3-.5.5-1 .4-1.5.6-.7.2-1.6.6-1.2.5-1.3v-.8l.5-.6.2-1.1.4-.9.9-1.6.5-1 .1-.6.2-.5.3-.7 1.2-2v-.6l.9-1.5V64l.9-1-.2-1.4.4-.2.8.8.2-.8-.3-1.6.1-.7.6-.9v-1.8l.1-1 .6-1.2v-1.7l.8-.5.6-.6.3-1v-2l-.4-.8h.3l.6.2.6 1.3.7.7h.4v-.4l-.5-.7h.6l.7.1.2 1 .8.1 1-.2.7-.4.6.1.5.2.3.5.5.4.3-.6-.4-.7-.7-.5-1-.2-.8-.4-.5-.4-.3-.6-.8.3-.6-.2-.7.2-.7-.1-.4-.4-.2-.8-.7-.4-.5.3-.2-.4.5-1 .5-1.7.3-1.4.3-1.7.4-.3.2.5v1l-1 3.8h1l.5-1 .3-1.1.5-.4-.4-2.3h.7l.5-.7 1-.3-.5-1-.5.2h-.3l-.2-.3-.6.5-.4-.4h-.5l-.1-.5.3-1v-2l.2-.4.4.2v.8l.5.5v-.3l.2-.7.6-.3h1.3l1.5-.3-1-.8-1.2-.3-.1-.5-.2-.7h-.7l-.8 1.1-.3.1v-.5l.4-1.6.3-2.3.2-1.3-.3-1-.5-.8v-1.5l.2-1.7v-.5l.3-.4v-3.5l.2-1-.4-.7v-.9l-.3-.3-.3-.5-.5-1-.1-1-.3-.9.4-1.8V8.1l.7-1.3.7-1 .4-1-.4-.3-.1-.6h.7l.5.1 1 .8.9 1.1.9.9.7.4.5.7.8.4.8.8.3.6 1.5 1.1 1.8.9 1.8.2.6.7.8.5h.7l1 .6 1.1.6h.7l1 .5.8-.4.6.6.4.8v.6l.2.6.4-.3.2-.6.7.5-.1.6.5.6-.5.5.3.2 1-.5-.4-1.2.4-.7h1v.7l-.6.4-.1 1 .7-.4.2.7.4-1.6.4.6-.1 1.4-.8 1 .1 1.2v.4l-.6.2-.3.6h-.7l-.3.7-.6.1.4-.9-.2-.6-.2.6-.2.4-.4-.8-.3.9v.6h-.5l-.6 1-1.3.5h-.4l-.4.4-.5.6-1 1.3-.8 1.3-.6 1 .5.4h.5l.5.2 1.5-.1.5-.2 1-.5-.6-.2-1.5.5-.7-.1-.6-.2v-.5l1-1 .2-.4.6-.4.5-.6 1.2-.6.9-.5 1.3-.1 1.2-1.5 1-.7.6-.7.6.6.2-.8-.3-1 .2-.7.5.8.4.6v1.1l-.2.5.1 1.2-.6.1-.3-.5-.5.6-.4.2-.4-.8-.4.2.2.5v1.7l-.2.6h-.4l-.2-.7-.4-.3-.1.8.2.4-.5.2v.4l.7.2.7-.2.5-.2.3.8v.6l-.5 1-.4.4-.2.4h-.1l-.4 1-.4.2v.8l-.1.5h-.2l-.4-.5-.6-.4.3-.7.6-.5.2-.5-1.1.4-1 .7-.2.5.2.9-.4.3-.3.8-.5-.3v-1l.5-1 .3-.7.1-.3.1-.7-.2-.2-.4.6-.3.6h-.2l-1 .3-.5.9-.3.3-1.1-.3.4-.4-.6-.2-.6 1 1.4.3-.3.3-.9.4-.2.7.8-.5.7-.3.4.3-.8.6-.5.5.4.1.4-.3h.2l-.2 1.4.4.1.3-1.3.2-.6.5.2.3.5.2-.8.4.2.1.5v.5l.6.3h.5l.9-.8.7-.5.6-.9.7-.4.2-.8.2.3.4.9.6.4V33l1.2-.4.6-.2-.1-.8.2-.7-.2-.9v-1.3l.1-.8.8.2.2-.5-.4-.5-.3-.7.6-.2.2-.9.3-.7v-.8l.8-.8.8-1 .5-.8 1-.3.2-.5.4-.3-1-.3-.6-1.3.3-1.6v-1l.3-.8.1-.5-.2-.4-.6-.7-.2-.6-.6-.6v-.9l-.7.2-.5-.4.3-.4-.3-1 .6-.2.6.4v.7h.5l.4.5h.2l.4-1.1.1-.8.6-.2.3-.5-.2-.6-.2-.4.2-.6.2-.4-.4-.5.6-.1v-.5l-.6-.6h-.6l-.8.6-.3-.2.3-.7-.7-.6.4-1-.4-.6-.4-.5.2-.4h.5V1l-.5-.3V.4l.3-.2.5.4V0l8 2.1 8.6 2.3 7.2 2 9.2 2.4 10.3 2.6 6.3 1.5 8.2 2.2 10 2.1 5.3 1.4 1.8.4 4 1 4.6 1 2.3.4 2.5.5 4.7 1 6.2 1.3 3.7.7 1.5.5 3.5.6 2 .3 1.5.3 1.8.4 4.6.8 6.1 1.2 7.4 1.3 4.5.7 1.3.3 3 .5 3.7.6 2.7.4 1.6.2 1.7.4 3 .5 2 .3 2.9.4 5 .8 5.1.7 3.6.6 2 .3 3.2.4 3.7.5 3.9.5 3.5.5 1.8.1 2.9.5 2.5.3 3.2.3 2.2.3h1.2l1.6.4 2.5.2 3 .3 2.7.3 2.7.3 1.7.2h1.3l2 .3 3 .3 3.1.2 3 .3 1.4.3h1.4l2.6.2 3.3.3 3.3.4 2.7.3 14.7 1 12.2.8 6.8.6 17.3.9 8.7.3 7.1.3 14.1.2 9.3.3H567v-7.5l.6.2.7.1.5.1.4-.2.7-.1.4.2.3.3.5.1.6.1v.8l.1 1.2.4 1.3.4 1.1.2 1.1.3 1.5.3 1v2.8l.1.5.9.5 1.1.5 1.1.4.5-.3h1.5l.5.2.3.8h1l4.2.1.4.4.4.4-.1 1.3.3.5 4.3-1.1.1-.7.4-.2 1.9-.8h.4l.6-.1 1.6.3h.8l.7-.2.5.2.5.5 1.1.4.8.3h1.7v1l-.7.2-.2.4v.4h2.5l.8.8-.2.8.1.5.5 1 .8 1.1 1-.5v-1.2l.1-.4.2-.3.6-.1h.8l1-.2h.5l.3.4.1.1.4.3-.1.7.3.7h.9l.4.2.5.4 1 .2.2-.1h.4l.3.3v.4l.2.7.2.3.7.2h.8l.2.6.5.1.3-.1.5-.1.6.3 1.5-.4 1-.5.8-.9 1.1-1 .8-.2.3-.4.5-.4.6-.3.4-.1h.5l.1.2.3 1 .7.4.1.5.1.5.4.2.5-.2.8-.2.5-.2h.3l1 .4.9-.1 1.5-.3h1.1l.8-.2h.7l.7.2.5.4.5.4.5.4.7.4.9.4.8-.4.4-.2h3.8l-1.5.7-1 1-1.4 1-.9.4-1.5.8-2 1-1.3.5-2 .7-1.8 1-2.7 1.9-1 .5-.8 1-1.3 1-.8.8-.9 1-.8 1.1-2 2.5-1.3 1.6-1.9 1.4-1 1-1.7 1.4-.6.4-.6.7-1 .9-1.2.8-1 .6-.6.9-.5.4v1l.3.2.4-.9.1-.2.2.2.6.5.7.3h.4l.5.3.7-.2h.8l.8-.3 1.1-.6.8-.5h.9l1-.2.8-.4.6-.3.8-.4 1-1h.4l.6.1 2-1 .7-.7.8-.2.4-.2.5-.2.3.4.3.2h.6v1.2l-.1.5-.7.8-.2 1 .1 1v.3l-.7.7-.5.7.8.4.4-.5.5-.5.4-.1.5-.1.2-.5.4-.1.8.5 1.2.7.8.3.7.2h.9l.9-.7.4-.5 1-.4 1-.3.8-.2.7-.5.9-.8.6-.6.4-.5.4-.6.7-.6.7-.1.8-.2h1.5l.6-.5h1.3l.5-.1.8-.3 1.1-.8.5-.4.4-.9.3-.3.3-.2h.6l.7-.4h.6l.7-.3v-.1l.2-.6.1-.8.6-.3.4-.3.3-.7.5-.2h.4l.5-.9.6-.6h1l.3-.3.5-.5.3-.7.6-1.2.5-.6.6-.4 1-.4.8-.7.9-.4.8-.2h1l.8-.2.5-.2.8.2.2-.4 1.2.4.4.7v.3l-.3.2h-.3l-.3.2-1.3.2-.8.2v.3l.1.4-.1.3-1.4 1.3-.9.8-.5.3-.4.4-.3.5v.4l-.1.1v.5l-.6.7-.6.2-.2.2v.6l-.2 1-.2.3h-.3v-.2h-.4l.2.7v.2l.2.1-.3.7.1.9-.2.6.2.5-.2.9.2.3.3-.6.4-.6.4-.5v-.7l.6-.4.7-.6.8-.7.4-.4h.3l.1.3-.2.5-.4.2-.6 1-.3.5.2.2h.2l.3-.8.4-.4.2-.3.8-.2.7-.1h1.8l1.1.3.4-.2.3.5h.6l.4.2v.4l.5-.2h.3l.2.5.8.2.2.3v.7l.2.3.5.4.5.8.3.5h.5l.1.2v.4l.7.2.3.3-.1.4v.3l.3.5.2.2h.5l.2-.1h1.3l.5-.2.3-.2h.7l.6-.4.5-.2.7.3.3.5.6.6.7.2.5-.3.7-.4h.6l.7.3.3.5.2.3.6-.6V93l.7-.8.5-.3.3-.8.4-.1h.5l.7-.7 1.3-1 .8-.8.7-.3.5.1h.3l.8-.4.7-.1h.4l.2-.4h1.4l.7.1 1-.3 1-.2h.8l.7.1 1-.3 1.1-.7.7-.4.8-.5h.6l.8-.3.3.1h1l.6-.5.4-.1h.3l-.3.6-.3.7-.2.5-.1 1 .1.5.2 1.3v1l.7.4.5-.2.6.4h1.3l.3.1.6-.1.3-.2.3-.3.2-.3h.3l1 .2v.5l.4.2h.3l.4-.2.6-.3.5-.3.5-.3h1.6l.4.7.6.8v1.2l.6 1.3-.2.3-.3.5v.3l.3.3h1.2l.5.2.8.6v.2l.2.6.4.4.3.2.5.3h.5l.4.3v.5l-.2.1-.5.2h-.8l-.2.2h-.3l-.3-.2-.3-.2-.5.1-.5.2h-1.2l-.6-.2-.3.1-.3.2h-.4l-.5-.1h-.4l-.1.1h-.3l-.2.3h-.4l-.4-.7-.9.1-.7-.2-.4.3.2.6-.5.5v.4l.2.4-.1.4.2.7-.2.4h-.4l-.4-.2-.5-.2-.2-.3v-.5l-.7-.1h-.5l-.4-.7-.8-.7-.8-.2-1-.2h-1.4l-.8-.2-.7-.3-.6.1h-.5l-.6.2h-.9l-.7.8-.7 1.1-.5.4-.5.3H697l-.5.2h-.3l-.2.2-.4.5-1.2-.3H693l-1 .2-1 .6-.2.3-.4.3v.6l-.2.2v1.2l-.3.5-.6.1-.3.2-.6.5-.5.3v.5l-.8.3v.6l-.5.3.1.6-.1.3h-.3l-.3-.2-.8-.4v-.3l-.1-.4.6-.3.2-1.3.8-.4v-.8l.5-.9v-.3l-.2-.3-.3-.1-.4.1-.5 1.2h-.8l-.9-.4-.2.2.1 1.1-.5.8-.4.9-.8.3-.8.4v-1l-.2-.7-.1-.9.5-1.5-.1-.2h-.3l-.6.8-.2.7-.6 1 .2.8v.5l-.1.3-.6.3-.7 1.2-.6 1.2-.2.8-.5 1.2-.8 2.4-.6 1.5-1.1 1.8-.9 1.1-.2.9.2.5-.1.6v1.2l-.3.3-1.2.4-.5.6-.5.1-.2.6v.7l-.4.7-.5.5-.3.4v.8l-.8 1v1.1l-.3.6v1.3l-.4.3v.4l.4.4.4-.4h.9l.4-1.3.9-.8.9-.2.2-.4.6-1.9.7-1.6.5-.4.4.2h.3l.1-.3.9-.3.1-.3.2-.2.3-.1.2.3.2.3.3.4.2-.4v-.4l-.2-.7v-.5l.4-1.4.2-.5.5-.5.2-.7.3-.7-.1-1h1.2l-.1-.5.5-.3-.2-.8.6-.4-.1-.4.1-.2h1.5v.9l-.6.6-.2.6-.1.5.2.5-.1.7-.5.4-.4.4-.1.7-.2.4-.4.4-.2.7v1.2l-.7 1-.7 1-.3 1.2-.2.7-.1 1v.4l-.6.9-.5 1-.3 1.3-.2 1.2v1l.1 1.2v.6l.5 1-.1.9-.8 1-.9.5-.2.5.1.9-.4.7.1 1-.2.6-.1.7v.8l.3.7.4 2v.5l-.3.8-.4.6-.1 1v.9l-.2 1.2-.4 1.1-.4.8-.3 1.2v3.3l.3.8.3.7v.4l-.2.4.1.6.8 1 .1.8v1l.2.5.3.6.6.4.1.7v.8l-.1.7v.3l-.3 1v.9l.1.9.3.5v2.7l-.2.9.1 1 .3.8.5.8.3.6.4.7 1.1 1 .3.5.4.9.2 1 .5 1.8.5 1.4.5.6.3.2.7.4.3.5.6.5.5.3.8.2h.6l1.3-.2.5-.3 1.5-.6 1-.5 1.1-.7.8-.7.7-.5.7-.6.4-.9.8-.3.6-.6.4-.6.1-.6.1-1.2.6-1.2 1-2.3.7-1.4.4-.4.5-1.2.4-1.4.1-1 .2-1.1.2-1.4v-.8l-.2-1.2v-.1l.6.2.2-.5-.1-.3-.6-.4v-1l.1-.5v-.6l-.4-1-.2-1.7-.1-.5-.4-1.7-.4-1.4-.2-.6-1-1.6-.9-1.5-1.5-2.3.1-.6v-.6l-.3-.7-.6-1-.4-.7-.2-.7.2-.5.7-1.2.1-.5v-1l-.2-1-.2-1.5-1.2-1.6v-.6l.2-.3.6-.3.3-.6.1-.4.5-.9.3-.9.2-1.5.7-1.5.2-1-.2-1.5.2-.7v-1.5l-.5-1v-.5l.1-.4.3-.4.7-.3.6-.4.4-.5.3-.4-.2-1-.2-1v-.2l.3-.3h.5l.3-.2.4-.5v-.3l.3-.4.9.3h.4l.7-.5.2-1.4 1-1 .4-1.4.4-.3.5-.9.5-.1v1.1l-.7.5v.4l.5.8v.6l-.4.8v.3l.2.7-.2.8v2.1l.2.3.3.2v-.3l.3-1 .2-.9.1-1.3.1-.6.3-.4h.3v1.1l.1 1.3-.2.6-.3.3-.3.8v.3l.2.3.4-.1.4-.3.3-1 .4-.8.2-1.2.2-1.7v-1l-.3-1.3-.3-1.7v-.5l.3-1 .7-.4h.4l.2-.3.1-.6.7-.4.5-.4.6-.2h1.7l.4-.1.2-.4v-.2l-.7-.2-.6-.5-.6-.2-.3-.5-.4-.6v-.8l-.1-.6.3-.5.4-.6.6-.5.5-.5.1-.2v-.4l-.5-.5v-.3h2l.3-.1.4-.4v-.4l.3-.1h.5l.8.5 1.4.5 1.4 1h.7l.7.2.9-.3.4.1h.4l.5.3.6.2.6.6.4 1 .2.2.4.3.5-.2h.8l.6-.1.6.2 1.8 1 1 .2.6.1.7.4 1.5.1.3.1.5.5.9.5.2.4v1.2l.4.4.6.4.6.6v.8l.8.7v.2h-.3l-1.2-.3h-.7v.5l-.3.5.2.8.3.7.6.9.6.5.5.5.4.6.2.6.4 1 .1.5-.2.7.2 1.5v4.8l-.3.6-.4.2-.2.7-.3.4-.7-.1-.3.2-.3.9-.1.6v1.7l-.1.7-.1.3-.8.2-.2.5v.4l-.4.2h-.6l-.6.2-.8.2-.4.7-.2.6v1.3l-.2 1-.2 1 .8 1v.4l.5.5.5.5h1.6l.4.3v.6h.5l.4-.4.4-.8.5-.8.3-.7.3-.3h.7l.3-.6v-.3l.5-1.5.5-.7.3-1.1.6-1 .6-.7 1-.3 1.2-.7.3-.5.6-.4.3-.1.6-.1h.4l.7.3 1 .2.7.2.6.7.3.3.3.8.5.5.8 1.3.3 1.3.3 1.2v1l.3 1.3.5 1.1.5.8.5 1.2.1 1.1.3 1.4.3 1.4.3.3.1.2.3 1.4.7 1.3.2.6-.3 1-.3.7-.1.9.1 1.4.2 1.3.1 1.5-.3 1.2-.6.9-.2.2v-.2l-.5-.2-.4-.3.1-.3.4-.4-.1-.5-.6-.3-.3-.1-.3.3-.7.3-.5.5v.4l.3.3v.7l-.7.8v1.1l.1.5v.3l-.1.8-.5.7-.5.4-.9.5-.6.4-.4.5-.4 1.1.1.7v.6l-.2.7v.6l.2 1 .1.4v.4l-.3.2-.3.3-.2.6-.3.3-.7.4-.3.8-.3.5-.3.4-.3.6-.3.8v1.2l-.2.6-.3 1.2.4-.4.4-.3.6-.2h.4l.2-.4h.4l.6.4.6.5.6.2.7.1h.6l.9.4.6.5.9.4.6.2.8-.1.4-.3v-1h.6l.2.3.2.5h1v.4l-.5.3-2.7.8-.3.5v.3l.6.4.5-.3.6.2.5-.9.6-.2h.6l.3-.1.3-.3h.4l.6.7 2.2.7h.5l1.2-1h.3l1-.3 1.5-.9 1.6-1 1.4-.1h1.7l1-.3.5-.3 1-.5 1.4-1.7 1-1 1.6-1.8.2-.9.9-.4 1.6-.7.7-.9.8-.6h.5l1-.5 1.5-.7 1.2-.9 1.3-.6 1.5-.6 1-.5.4-.3 1.1-.7 1.4-1.2.1-.4.6-.4.3-.5.4-.7.4-.2h.2v.2l-.3.6h.5l1.3-1.5 1.5-1.1 1.3-1 .8-.8 2-1.6 1.4-1.7.3-.5.3-.5.4-.4.4-.2.4-.4 1-.8.7-.5.4-.4.2-.6.5-1.1v-.8l.3-.5.4-.1 1.1-.7.5-.4v-1.1l-.5-.8-.5-.9-.1-.8-.3-.3h-.4l-.4.4-.1-.4-.6-.4-.1-.6v-.5l-.4-.6-.4-.1v-.8l.3-.4-.1-1-.2-1v-.6l.5-.4 1.7-.6 2.3-1 2-.9 1-.1.6-.2 2.1-.4.8-.2h.4l1.2-.3 1.3-.2h3.7l1 .5 1 .5.6.2.5-.2.4.4.2-.5.3-.4 1-.5.6-.1.8-.4 1.4-.3 1.8-.1 1.2-.3.5.5.4-.6v-.3l.3-.2 1-.2.3-.3.9-.8.5.2h.1l.2-.9.2-.5.3-.4.2-.3.5-.7.8-.1.1-.2.1-.5v-.5l.5-.5.6-.1h.9l.9-.2.2-.5.3-.6v-.6l-.2-1v-.8l-.6-.9-.2-.7-.8-.8-.4-.4v-.4l.2-.4.3-.1.4.3.4-.1.4-1v-.8l-1-.4.7-1h-.2l-.4-.1-.3-.3-.3-.2-.3.2v.4l-.1.1.4.3.1.7-.2.4-.3-.1h-.3l-.2-.7-.4-1-.9-.4v-.6l.2-.4.4-.4 2-1.6 1.3-1.3.8-1 .5-1 1.2-1.3v-.5l.2-.8v-.6l-.2-.3.4-1 1.2-1.5 1.8-2.7 2-3.3 1-.7 1.4-1.3.7-.6.3-.5.8-.5.6-.3.7-.5h1.7l1.3-.4 1.7-.3 1.6-.4 2.4-.6 2.5-.6 9.1-2.4 2.3-.6 8.6-2.1 9.1-2.6 5.3-1.1v-1.2l.4-1.4v-1.5l-.1-.3-.5-.4.4-.4.4-.2.5-.8.4-.2.3-.1.6.4h.6l.5-.4.3-.6.5-.3.4-.3.3-.6.5-.3h.5l.4.5.5 1h.4l.5-.2v-.3l-.2-1-.3-1.4v-.4l.2-.3.5.1 1.5.1.2-.2.1-.2-.1-.1-1.1-.9-.6-.8v-.4l.2-.6.9-2.1.3-.2.2-.3.6-.3.2-.5.4-.5.4-.5v-.4l-.4-.4v-1.2l.3-.4.6-.4.3-.5v-1.2l-.2-.2-.6-.2-.3-1 .2-.9v-1.6l-.2-.2-.8-.6.1-1 .3-.7V54l.1-.5.2-.2.5-.7.5-.6.1-.6v-1l-.1-1.3v-.5l-.3-1v-2l2.2-6.7 1.8-5.4 1.5-4.3.3-.5.3-.4h1.9l.3-.1.1.3.4 1.9.5 1.3.8.3 1.3.3.6-.3 1.1-1.1 1-.7.7-.2.5-.8.6-.4 1.6-.3.2-.1-.3-1 .2-.2 1.2-.6h1l.7.2 2.7 1.3 1 .5 1 1 .3.2.8.3.6.4.5 1 2.1 6.6 2.7 9 1.4 4.2.2.5v1.6l.5.3.1.2-.2.5.1 1.3.3.6.4.4h.4l.4-.1.4-.4.5.7.4.2 1.1.1.8.1.8-.5h.3l.4.3.4 1.1-.1.5-.6.3v.7l.8 1 .5.3.2.4v1.8l.6.5 1.1 1.2.6.2.4-.4.4-1 .3.2h1.1l1 .7.7.5-.3.6v.4l1.1.9.2.6v.5l-.6.2-.9.2.3 1.2h.8l.3-.4h.2l.3.2.3.4.5-.3h.3v.4l.2.7-.3.3-.5.3-.2.4-.3 1.4-.3.6-.3.2-.2.5-.6-.2-.3.3-.2-.5-.2-.4h-.8l-.3.3.3.6v1.2h-.5l-.1-.7h-.3l-.2.2-.1.7-.3-.1h-.9v.5l.3.7v.7l-.4.2-.7-.2-.3.1-.4 1h-.1l-.4-.2-.3-.8h-.1l-.4.3-.4.1h-.2v.4l-.2.5.3.6v.5l-.2.5.1.5-.2.1-.5-.4h-.4l-.3-.3v-.3h-.3v.5l.6 1.2-.6.4.2.7-.4.5-.2-.5-.1-.7-.8-.3.2-.6-.5-.3-.4.4-.5-.5-.3-.4-.4.2V82l-.4-.2-.4-.4-.3-.1v.2l.3.6-.4.7h-.3l-.3.7-.3.1-.3-.1-.2-.2.2-.6-.5-.5-.2.3.1.8-.3.6-.3.3-.2.2-.4.2.4.5-.1.6.2.4.4.3h.4v.7l-.5.1-1-.2v.4l-.3.1-.5-.8h-.9l-.8.3-.3-.2-.1-.3.2-.2.4-.1-.3-.5.2-.4h1.2l-.1-.2-.4-.3v-.4h-.8l-.2.7h-.4v-.5l.2-1.1-.2-.7-.4-.4-.2-.2h-.2l.1 2-.2.5-.9.2-.4.5-.2.4.1.4.5.5.1 1v.4l-.3.8v1l-.2.4v.8l-.1.4-.1.4v.3l.6.2v.7l-.2.3-.4.4v.4l-.2.3-.3.4v1l-.3.3h-.4l-.3-.6.4-.5v-.3l-.6.2-.4.1-.3.6h-.2l-.3-.1v-.9l-.2-.3-.2.1-.2.3v.8l-.3.2.2 1.4v.1l-.3.5v.9h-.4l-.3-.8-1.1-.3.5 1.3-.2.4h-.4l-.5-.2-.3-.3h-.8l-.4.3v1.2l-.2.5.5 1v1h-.3l-.3-.2-.1-.4-.4-.4-.2-.8-.1-.7-.4-.3-.3.2-.5.9-.2-.6h-.2l-.4.2-.5.8-.6.5-.4.7-.5.3-.1.4v.4l-.4.4v1.1l.5.4.7.7v.5l-.5.3-.8.4-.4.2-.1 1.1v.3l.5.9-.1.4-.3.4-.2.8-.2.5-.6.2h-.4l-.2 1-.1 1.5v1.2l-.2.8v1.1l-.3.4-.7-.3v.7l.2.2.3.3v.3l-.3.8-.4 2.5.1.8-.1.1v.4l.6.6.4.7v.4h.7l.2.2.2.6h.7l.4.2.2.6-.1.4-.6.4-1.2.5-.3.3-.1.4.1.2.4.1v.6l-.9.6-.4.2-.3.5v.7l.3.4h-.4l-.3.2.1.3v.2l.2.2v.5l.2.2.2.4.2.3.6.3.5.1.5-.2V134l.5.3.5.2h.9l1 .5.2.4v.6l.3.3 1 .2.3.2.3 1.1.4.2.1.3-.4.1-.2-.3h-.5v.7l.2.4.6.4h.2l.6-.1h.6l.4.5.5 1.6.3.5.4.2.6.3 1.1.2h1.1l1-.7 1-.8 1.2-.7.5-.5.2-.6v-.5l-.5-1.2h-.4l-.4.2-.2-.2-.2-.7v-.7l-.5-.3-.5-.2-.5-.2-.2.1-.2.3-.2.3h-.3l-.3-.3-.1-.3.2-.4.2-.2.7-.1.7.2h.6l1 .7.7.7 1.3 2v.6l-.1.3.5.1.1.6v1l.3.8.4.6v1l-.2.3-.2-.1-.3-1-.3-.1-.6-.1-.6.3-.5.2h-.9l-.2.3-.5.6h-.4l-.8.4-.2.2h-.5l-.6.3-.1.1-.1.9-.3.6-2.4.8-.2-.9v-.8l-.4-1 .2-.6v-.3h-.8l-.3-.1-.4.2-.1.5-.2 1.1-.1.4-.4.5-.2.3v.5h-.4l-.3-.1h-.3l-.5.8v.3l.3.6v.1h-.6l.1.4-.1.2-.8.4-.5-.9-.4.3.1.6-.5.7-.3.4-.4-.8h-.3l-.2.2.3.8v.4l-.2.3-.5.2h-.4l-.5-.5v-1.2l-.1-1.1-.3-1-.6-.4-.3.1-.4.1-.1.4v.7l-.3.7.1.2.6 1.1v.5l-.2.8v.8l.2.6h-.3l-.2-.3-.1-.6-.5.4v.5l-1.3 1-1.4.7-.4.3-.2.3-.2.3h-.6v-.7l-1.9.7-.2.5-.7.2h-.5l-.3.1-.2.3-.3.1-.4-.1h-.4l-.1.5h-.4l-.5.5-.3.2h-.4l-.7-.8-.2.5v.2l.2.3-.1.3-.2.2-.8-.1-.3.2-.7.4-.8.2h-1l-.4.1-.3.3-.4.1-.8.2-.5.2-.7.2-.4.2-.5-.9-.5.1-.1.9-.1.6-.4.7-.6.3-.4.3v.6l-.2.3h-.3l-.6-.2-.4.1-.3.5-.3.5-.2.2-1.2.1-.4.1-.1.2-.2.6-.3.5-.4.5-.4.1v.4l-.6.4-1 .3h-.6v1.4l-.3.4-.3.5-.1.4-.7.4-.1.4.1.2.2.6.1.2-1.5-.3-.4-1-.3.2-.3 1-.3.6v.3l-.2.7-.2.5v1.3l-.2.6.7.9-.2.5-.5.9-.4.5-.2.5-.6.5-.7.3.4.3.8.1.1.1.2.2.8-.2.7-.1.4.1 1 .1-.4-.8v-.4l.4.3.3.3.4.7.3 1.1.2.7.1.6v1l-.1 1.3.1 1 .2 1.5.2 1.6v.9l.2 1.5v1l-.3.2-.1-.2v-.7l-.2-1.6-.3-1.1-.2-1.2-.3-.1-.2 1.3.1.5.2.4.1 1.5-.2.7-.2.6.2 1 .2.8-.2.8-.3.6-.1.5-.8 1v.9h-.3l-.4-.2-.3.1v.8l.5.8-.1.8-.3.6-.5.5-.5.6-.5 1.4-.3.3-.3.7-.6 1.2-.4 1-.3 1.1-.2 1.3v.8l-.2.6-.4.7-.4.4-.7.3h-.5l-.2-.2v-1.2l.4-1.1V210l-.1-.5-.7-.3h-.6l-.3.1-.4-.3-.2-.2-.5.2h-.6l-.2.3-.2.4-.5-.2-.2-.3-.3-.5-.7-.2-.3-.3-.3-.3h-.4l-.5.1-.6-.7-.5-.1-.6-.2-.6-.7-.7-.3-1-1-.1-.4v-1l-.1-.3-.4-.3-.5-.3v-.6l.2-.9-.5.3-.3.4v1l.2.6.2.4.2.4v1.4l.3.4.5.4.4.5.3.3.5.3.6.4.5.5.4.5.4.6.2.6.2.8.1 1 .3.8.5.4.7.6.3.6.2.5.1.7.4.3.2.1.8.4.7.6.4.4h.5l.4.1h.8l.6 1.6.2.5.2.2-.2.2h-.3l-.2-.5-.5-.2-.2-.1v.6l-.3.2.5.2.2.2v.6l-.4.2h-.5l-.5.1.2.6h.5l.3-.1.3-.3h.2l.3.1.2.1.1-.1.3-.1.6 1 .1 1 .1.6-.1.5-.2.4v.5l.3.6v1l-.4 1.8v1.5l-.2 1.2v1l-.3.7-.7 1.2-.1.2v1.7h-.4l-.1-.3-.2-.6v-1l.4-.9.3-.4.1-.7.3-.7.1-.7V230l.2-1v-.4l-.3-.2h-.4l-.2.2v.3l-.2.6v1.6l-.1.1-.5.3-.1 1.5-.4.8-.3.5v.6l.1.2v.5l-.2.4.1.3v.2l-.3 1-.1.5-.2.7-.5.7-.1.7v1.2l.1.4-.1.6v.2h-.4l-.1.3-.3.5v.6l-.2.2v.5l-.1.2h-.5l-.4.3-.3.3v.5l.2 1v.6l-.4.3-.2.4v.4l-.2.8v.4l-.1.3-.1.3-.2 1.1.1.4.2.3-.1.3-.3.2-.3-.2-.9-1.4.1-.2v-.4l-.3-.3v-.6l.1-.5v-.3l-.2-.5.4-.5v-.7l-.5-.2v-.3l.4-.7-.1-.4v-2.3l.4-.2.2-.1-.2-.2v-.5l.2-.3v-.3l.2-.2.1-.4v-.5l.2-.5-.3-.6.4-.2.2.1h.6l.3-.2-.3-.5.2-.7h.2v-.3l-.3-.5v-.3h-.5l-.1-.3.3-.3.8-.3v-.7h-.3l-.5.1h-.6v.5h-.9l-.2.1-.1.6-.3.2h-.3v-.6h-.2l-.5-.1v-.6l.1-.4.3-.2.6-.3.5-.7v-.2l-.2-.1-1 .4h-.5l.2-1 .8-.4.3-.3h-.2l-.3-.2h-.3l-.6.5h-.4l-.6.4-.2-.1v-.8l.3-.6.7-.4.2-.3v-.3h-.3l-.3.3h-.5V229l-.2-.3-.1.2-.2.3-.1.4.1.8-.2.3h-.2l-.8-.8v-.3l.2-.5-.2-.2h-.2l-.3.6v1l.1.5v.2h-.3l-.4-.3-.6-.3-.5-.3-.3-.5-.5-.4-.3-.1h-.9l-.9-1.3v-.3l.5-.7v-.9l.9-.2.2-.1v-.1l-.7-.4-.4.1-.3.4-.4-.5v-.9l.3-.2h.6l.6-.1.6.2.6.4h.7v-.2l-.1-.4-.5-.3-.6-.1-.5-.4-.1-.3.2-.3.1-.8v-.2h-.3l-.5.5-.1.5-.3.1h-.2l-.3-.5-.3-.2h-1l-.4.3v-.4l.1-.6v-.8l.3-.4h.2l.3-.1.6.7.4.2h.2v-.6l-.2-.4.2-.5-.4-.3h-.3l-.1-1-.4-.3v-.2l.1-.3.6-.4v-.5l-.3-.4v-.3l.2-.8.2-.2.1-.2v-.3l-.5-.2h-.2l-.6.5v.9h-.3l-.3-1-.5-.4v-1.4l.4-1.2.5-.6-.1-.3v-.3h.5l.2-.3v-.1l-.2-.3.2-.3 1.6-.1.3-.2.2-.2v-.3h-1v-.8l.6-.3.3-.5h.6l.2-.2-.3-.2v-.5l.3-.4h-.7l-.7 1-.2.2-.2-.3.1-.6.1-.9v-.4l-.5.4-.4.3-.4-.2-.2.1-.2.3-.2.8-.3.3v.2l.4.5.2.3v.5l-.3.5-.3.2h-.7l.1.6v.2l-.3.2-.4-.3h-.3v.3l.2.6v.2h-.5v-.1l-.3-.7h-.3l-.2.1-.2.2v.3l.2.4.2.3h-.8l-.1.2v.3l.4.3v.3h-.7l-.2.2.5.6v.2l-.2.2-.7-.2h-.3l-.5-.4-.3-.2h-.7l-.1.2v.2h.2l.3.3.1.4h.7l.4 1h.6l.2.5h.7l.3.3v.4l-.2.3-1-.4v.3l.2.4.5.4h.8l.1.7-.2.3-.6-.1-.2-.1-.3.2.7.6.3.6v.3h-.2l-.6-.4h-.2l-.2.3.2.3.1.4-.1.5-.3.2.1.4.8-.2.1.1v.6l-.3.2-.2.4-.2.4.2.2.3.2.1.4.2.3.1.5.1 1 .3.2v.8l.1.5.5.5.4.6.7.7.8.6.6.5v1h-.8l-.4-.1-.2-.6-1-.6-.4-.3h-.8l-.3-.3-.3-.4h-.6v.5l.5.5 1.7 1 .6.3.5.6.4.2.4-.1.5-.2h.4l.2.2v.2l-.1.4v.5l.3.6.6.5.5.4v.6l.2.6.2.3v.3h-.6l-.2-.4-.3-.5h-.6l-.3-.5v-.9l-.5-.2h-.1v1.2h-.2l-.4-.2-.4.4-.3-.3-.1-.4-.5-.3-.4-.1h-.9l-.1-.4-1-.4-.1.8-.2.2-.4.1-.3-.5-.4-.5-.2-.6-.5-.6h-.1l-.3.1v.1l.1.5.4.5v.3l-.1.3-.4-.3h-.4l-.2-.7-.8-.3-.2-.9-.8-1.1h-.5l-.1.5-.1.2-.3.3.3.4.2-.1.5.2.2.6-.3.6h.2l.2.3.3.4.6.2.4.3v.6l.3.1.2.1.7.2.7.2h.6l.5.2h.6l.2.3.4-.1v-.5h.3v.2l.3.2.3.1.2.1v-.5h.2l.3.2.3.5.6.2.3.4v.5h.8l.2.6.3.2.6-.6 1 .5.5.2.7.2h.9l.3.3.2.4v.9l-.2.2-.2-.1-.5.1-.4-.3h-.2v.3l.3.4v.5h.1l.3.3.1.3v.1l-.1.4v.4l-.2.4v.2l.2.3.2.4.1.3-.1.3h-.9l-.6-.2-.5-.5-.3.1v.3l-.3.1h-.2l-.3-.7-.4-.6h-.3l-.6-.4-.4-.3-.4-.3-.8-.1-.4-.3-.3-.4-.4-.6-.8-.2-.5-.4-.4-.3-.4-.3-1-1.1h-.5v.3l.2.4 1 1 .5.5.5.1.3.2.5.6.4.5.4.2h.3l.3.3.4.5.6.3.8.2.3.3.3.5.1.6.3.4.3.2.4.1.6-.2.5-.1h.4l.6.4.3.1.7-.1h.5v.6h-.3l-.6.2h-.8l-.4.1-.2.3.2.3h.3l.4-.1h1l.5.3.3.2.1.3h.7l.2.6.2.3v.2l-.2.3v.7l.2.3h-.3l-.2-.2-.5-.3v-.5l-.3-.1h-.2l-.2.3-.4-.3-.3-.4h-.4l-.2.2.2.5-.4.2v.3l.2.1h.3l.1.4v.1l-.4.3v.5h.4l.7-.4.1.1h.2l.1.3v.4l-.2.3h-1l-.3.1-.6-.2-.5-.3-.5-.4-1.5-1.1-.8-.6-.3-.4-.4-.4-1-.8h-.5v.6l.3.2.3.2.3.5.4.3.5.3.7.8.4.3 1.2 1 .5.2.8.4.7.2h1.1v.1l.3.5.3.3h.1l.1-.1h.3l.3-.1h.4v.7l-.2.5h.1v.2h.3l.3-.2h.3l.3.2.1.3v.4l-.1.4v.2h-.2l-.6.2-.3.3-.5.4-.3.2-.1.1-.8-.8-.4-.3h-.2l-.3-.1-.7-.7-.5.2-.7-.4.2-.7v-.2l-.2-.3-.2-.3-.3-.3H857l-.2.1-.4.2h-.7l-.3-.2h-.8l-.1-.2-.2-.8v-.3h-.4l-.2.2.1.5v.5l-.1.1-.6.1h-.4v.3l.1.2.2.1h.5l.5.3h.7l.5-.3h.4l.5.4.2.2h.8l.2-.4.3.2.3.6.2.4v.7l.1.5.4.1.3.2.6-.1.1.4v.3h.3l.6-.2.4.4h.6v.3l.2.6v.4l.2.3.3-.5.4-.2h.2l1.4-.1.2-.4-.2-.4v-.2l.1-.4.3-.2.4.2h.4l.5.2h1.1l.6.3h.2l.3-.3.4-.3.2-.2.3.1.3.2.1.2.3.4.4.7.7 1.4.2.5.8 1 .7 1.4.3.8.5.8.5 1 .4 1.3 1 1.8.9 1.5.4 1 .6.6.6 1 .6.7 1.3 1.3.3.7.3.5.4.5.3.5v.5h-.2l-.2-.1-.5-.7-.2-.5-.3-.4-.6-.8-.6-.5-.4-.4-.2-.6h-.2l-.9-.3-.5-1-.2-1.2-1.3-2-.8-1.9-.4-.7-.3-1-.4-.5-.4-1.1v-.5l-.2-.5-.3-.3-.4-.3-.5-.1-.2.3-.2.2.3 1 .3.2.1.2h.6l.2.4.2.3v.4h-1v-.5l-.3-.5h-.3l-.3-.1-.3-.3h-.2v.3l.2.5.3.3-.2.2h-.5v.5h.4l.2.2.3-.1.2.4.2.2h.4l.3.2-.2.4.2.4h.3l.3-.3v-.3h.2l.3.3.1.4.5 1 .4 1 .7.8.4.3v.4l.2.6.1.5.4.4.1.2v.2l-.6-.1-.4-.6-.4-.7-.4-.3-.3-.2v-.6l-.6-.2-.3-.8h-.6v.5l.4.3v.8l.3.3.4.3h.2l-.1.2-.8-.1-1.3-.9-.6-.1-.3-.4-.5-.4-.5.1h-.1l-.2.3.3.2.4.3.4.3v.4l.8.2.5.3.1.3v.3l-.5.1-.6.2-.2.1-.2.4-.2-.2-.8-.5-.6-.5h-.3l-.2.1.2.4.4.1v.2l.2.5.3.1.2.2-.2.2h-.5l-1.2-.5-.6-.2h-.4l-.1.1v.4l.8.3.3.1v.2l-.1.2-.5.2h-.8l-.3.2.3.5.1.2v.5l-.5.3-.6.3-1-.1-.7-.3-.2.1-.5.1-.3-.3-.2-.4v-.6l-.5-.6-.2-.6-.1-.8.4-.5v-1.1l-.4-.2-.3-.3-.4-.3h-.3l-.2.1v.2l.1.3.4.4.3.3.2.3-.1.5-.2.2-.2.3v.4l.2.5.5 1.6.6.9.4.5.2.2v.2l-.5.3v.9l.1.2.8-.2 1.8-.8.8-.2.6-.2.2-.5.5-.3h.2l.3.2v.7h.7l.6-.3.1-.1.2-.5.7-.6 1.3-.3 1.1-.3.7.1.2.2-.4.4.6.1v1l-.4.2-.2.2v.2l.4.1.3 1v.1l-.5.3v.4l.5.2h.2v.4l.4.6-.2.4-.8-.2h-.7l.2.2.5.3.6.2h.7l.2-.2v-1.2l.2-.6-.2-.8v-.7l-.3-1v-.3l.2-.4.4-.2h.8l-.2-.6.1-.1.4-.2v-.5l1.4.6.3.7.6.9.4.1.2.2v.7l-.1.8.4.7v.1h-.7v.4l.6.8.1.3v.5l-.8.8-.4.2-.3-.4-.5-.4-.1.3-.3.6v.7l-.5.1-.2.3v1l-.2.3v.8h-.4l-.2-.3-.4-.1v.8l.2.6-.2.3-.4.1-.4.4-.2.4h-1l-.5-.4-.3.1-.1.5-.4-.1-.6-.6-.3-.2-.2.3.2.6-.3.2h-.2l-.4-.6.1-.8-.4-.3-.1.7-.6.2-.2.5-.8.2-.6-1.4-.2-.5.1-.2 1-.5v-.4l.2-.5-.6-.3h-.2v.3l.1.5-.2.2h-.6l-.6.3-.8-.4h-.5v.4l.1.2.6.3.6.3-.2.4.5.7v.4l-.2.4h-.3l-.7-.4h-.6l-.6.1-.8-.2-.2-.2v-.5h-.3l-.3.5-.2.2h-.2l-2.3-.6-.3.2v.4l.8.3v.3l.2.1.6-.2.4.2.4.2h.3l.4-.1.4.1v.5l.2.2.4-.4h.6l.1.1v.1l-.2.4v.3h.4l.8-.5h.7l.1.7.3.1h.1l.1-.7.4-.1h.4l.4.2.5-.1h.2l.3.1v1.3h-1l.6.5.1.4-.1.1-1-.2-.2.6h-.4v.5l.6.1.5-.2.2-.2.3.1.2.3-.4.4v.3l-.4.3-.3.3-.2.8-.2.2-.5.1-.3.4v.5l-.6.1-.5.6h-.4l-1-.5h-.4l-.5-.2-.4-.6h-.7l-.2-.3-1-.6-.4-.4h-.2v.4l.1.4v.3l-.1.2.8.3 1.3 1 .5.4.3.4h.7l.6.3h1l.3.1.3.2.3-.3.2-.4.2-.4.5-.2h.1l.2.4v.6l.6-.1v-.5l-.3-.5-.2-.1.2-.4h.4l.4.4.3.4h.8l-.2-.4-.5-.5v-.6h1.3v-.7l.2-.3-.2-.4.2-.2.5.2.1.3v.5l.5.2-.2.4-.3.4v.3l.4-.1.3-.2.1.2h.4v-.4l.2-.4-.1-.7.3-.2.4.3.4.3.2.7-.4.2-.3.2.2.3.2.2-.4.2-.3.5-.6.1v.7l-.6.4.2.3v.3l-.6.6v.6l-.2.4-.5.3-.6-.1v-1.1h-.7v1.2h-.1l-.7-.3v-.7l-.2-.2-.8.4-.3.6h.8l.2.2-.1.2-.1.3-2 .2-.9.3-2.1 1.1-.5.5-.2-.2-.1-.4-.4-.4-.3-.8h-.3l-.4.1v.2l.4.6.3.1v.3l-.2.5.1.4v.6l-.3.2h-.4l-.2.3v.4l-.4.4-.5.6h-.3l-.4.1-.7-.4-.3-.3.2-.3.4-.5-.6-.5v-.6l-.6-.1-.3-.2-.2-.6h-.3l-.1.2.4 1 .2.4h.2l.4.2v.6l-.5.3v.7l.4.4h.8l.2.4v.2l-.8.6-1.3.7-.5.5-.2.5-.7.8-1.3 1.7-.6.8-.1.1-.3.7-.4 1.5-.3 1.2-.2 1 .1 1v1.5h-.2l-.3-.1v-1.8l-.3-.3h-.4v2.1l-.3.7-.4.6v.3l-.3.3h-.6l-.7.2h-.9l-.5-.2-.7.3-1 .4h-.5l-.1-.3h-.2l-.4.5-.5.4-.6.6-.6.2h-.8l-.5.5-.8.6-1 .8-.8 1-1.1 1-.8 1.1-.8 1.3-.3.8-.2.5-.5 1-.7 1.4-.2.9v.5l-.5 1-.6.4-.3.2-.1-.2-.1-1-.2-.1h-.1l-.4.3v.7l.2.4.4.6.3.2.6.2.4.3.2.3v.9l-.2.2h-.6v.5l.1.2-.3.2-.2.2-.5.5h-.4l-.3.2-.1.5-.2.2-.3.1-.4.2-.3.6-.3.2h-.4l-.3-.1-.4.2-.7 1-.7.8-.1.3v.3l.4.3v.1l-.6.5-.5.4-.5.6-.7 1.1-.4.4-.5.1h-.1l-.7-1h-.3l-.2.2.1.6-.1.2-.1.4.2.2h.5l.1.2v.3l-.6.4-.2 1.2-.3.2h-.6l-.8.6h-.8l-.3.7-.5.1h-.1l-.5-.1-.1.2.1.3v.5l-.6.6-.3.3-.3.4-.6.3-.5-.4h-.4l-.5.3-.4.3.1-.2-1.3.1-.3.2v.6h.3l.6.2.3.2v.5l-.4.3-.3.4-.4 1-.4.4-.3.4-.3.2h-.7l-1.3-1-.4-.5-.7-.9h-.4v1.2l.2.5.7.5.3.6v1l-.1.3.2.2.4-.3.3-.5.3-.2.5.3h.3v.5l-.3.7-.5.8-.5.5-.3.2-.6-.2h-.2l-.1.2v.5l-.3.3-.2.5v.7h.7l.1.3v.5l-.5.5-.7.4-.4.1-.1.3.1.3.3.4-.6.6-.4.2-.5-.2h-1l-.1.3v.4h.4l.1.4h.8v.5l-.4.4-.2.3-.3.7-.2.3-.4-.3h-.6l-.3.5h.3l.2.8.2.2.5-.4h.1l.1.7v.8l-.1.7-.2.5-.5-.3h-.2l-.4.2-.3.3h-.4l-.1.4v.4h.5l.2-.3.5-.2h.2l.2.2v.2l-.1.5-.3.5-.1 1.2-.1.2-.7-.2-.2.1-.3.2v1l.1.4-.2.2-1.1-.1h-.4l-.1.4h-.1l.4.3.5.7v.1l-.1.3-.3.4-.1.4v.2l.2 1v.3l-.1.2h-.4l-.7-.6-.3-.3h-.3l.2.4.1.2v.5l.1.2.5.1.3.2.2.7.3.5.4-.4v-.4l.1-.8.2-.1.2.4.1.5v.5l-.2.4h-.3l-.3.3-.2.3h-.4l-.2.2v.3l.3.2.4-.1h.5v.4l-.5.5-.2.5v.8l-.1.3v.7l.6.5v.3l-.2.8-.7.3.3.5h.2l.4.2h.4l.3-.2h.2v1.1l-.1.5.4.5v.2l.2.5v.3l.3.5.2.6v.9l-.2.5.1.3h.5l.4-.5.2.1.5 1.2.3 1.5.4 1 .6 1.8 1.1 2.5.3.8v.8l.4.3.4.5.1 1 .3 1.2.3.4.4.1.3.3v.6l1 1.7 1.3 2.2.5 1 .1.4 2 2.8.6.7.3.9.2 1 .2.2h.7l.2.6.2 1 1 1.2 1.4 1.5.7.9v.3h-.4l-.9-.6h-.3v.3l1 2.2 1 2.3 1.6 3.6 1.9 3.2 1.2 1.7 1.6 2.6 1 1.3.8 1 .8 1.4.8 1.2.5.8.6 1.1.3.8.1.8.4.6 1 1.4.7 1 .6.7.5 1.1-.1.6v.3l.6.2h.5l.4.3.4.7.6 1.2.4 1 .3.9.6 1.5.3 1.3.4 1.6.1 1.4.1 1.8.1 2.3v1.7l.2.7.2 2.2v1l-.2.5v.8l.2 1v.8l.1 1.1.4 1 .1.7v.7l-.2.1h-.3l-.2-.4v-.9h-.2l-.2.2-.2.3v2l-.6.4-.2.5v1.1l-.4.3-.1.3-.2.4.1.6.1.4-.1.4-.3.6v.7l.4.8.4.5v.8l-.8.6v.5l-.2.3-.4.4v.7l-.1.3-.6-.1-.3.2v.4h-.4l-.8-.4h-.5l-.2.2.2.5-.3.3h-.4l-.8.4-.6.5-1.4.3-.7-.3h-.4l-.8.1-.9.8-.2.2-.5.2h-1l-.7.4h-.4l-.5-.5-.8-.7-.3-.7-.2-.5v-.7l.2-.4.4-.1h.4l.4.3.5.5.6.5h.5l.6.2.6-.3.4-.3.1-.2-.2-.5.1-.3v-.7h-.2l-.6.2h-.4l-.3-.5h-.4l-.8-.4h-.2l-.5.3-.3-.1-.7-.2-.4-.4-.3-1-.3-.3-.5-.4-.2-.2.2-.5-.2-.2-.5-.1-.2-.3-.8-1.3-.6-.4-.3-.3-.7-1.2-.6-.6-.6-.4-1-.6-.8-.2h-.4l-.4-.4h-.4l-.1.3-.7-.3-.4.2h-.3l-.4-.1-.3.2h-.6l-.5-.3-.8-1.2-1.1-2.4-.7-2-.3-1-.1-.7-.1-1-.1-.4-.5-.2v-.8h-.3l-.5.3h-.3l-.7-.7h-.4l-.4-.4v-.2l.3-.4-.1-.2h-.5l-.5.1-.3-.1-.1-.5-.1-.8-.3-.4-.4-.3-.1-.4v-1.5l.3-.7-.4-1.2-.4-.5-.4-.4.1-.2.2-.3.7-.3.2-.3v-.3l-.3-.1-.4.3-.4.2h-.9l-.3.2-1.3-.6h-.4v.5l.4.3 1.4 1.3.3.5v.7l-.1.1h-1.2l-.1.1-.4-.4-.3.2-.2-.3-.9-.7-.3-.9-.3-.1-.5-.3-.5-.5-.4-.6-.8-.8-.3-.5v-1l-.3-.5-.7-.8-.8-1.4-.4-.8v-.8l-.3-.5-.6-.3-.5-.3-.8-.1-.1-.2v-.8l.1-.4h1.3v-.3l-.1-.8h-.1l-.2-.3.1-.2.4-.4v-.9l.3-.2.4-.3.2-.3.4-.3v-.7l-.1-.2.1-.3.6-.3.6-1.3-.1-.3-.1-.2-.3-.2-.2-.6v-.6h-.4v-.2h-.3l-.2.1v.5l-.2.5.2.8v.3l-.2.3-.4-.1h-.2l-.3-.5-.1-.4-.1-.7v-.6l-.5-.2-.8-.2-.3-.3-.3-.1-.3.1h-.1l-.4-.2-.1-.3h-.3v1.3l-.1.3-.2.1v.4l.3.1.8.1.4.6h.4l.2.2-.2.3.2.5v1.2l.1.5v.5l-.3.1h-.4l-.3-.1v-.2h-.4l-.3-.2-.4-.1v-.2l-.4-1.1-.2-.2-.2-.1h-.3v.4h-.3v-.1l-.4-.5-.2-.7-.1-.4.2-.7.4-1.1.2-.9-.2-.7v-.7l-.4-.9v-.3l.3-.5.5-1.2v-2.1l.2-.5v-.4l.3-.5v-.4l-.2-.3v-.8l.2-.3v-1.1l-.3-.6v-.8l.1-.3.3-.6v-.3l-.4-.4v-1.3h-.4l-.3-.1-.3-.2v-.7l.2-.1.4-.1h.3l.2-.3v-.2l-.2-.2-.5-.4-.7-.3-.3-.3-.3-.2v-.5l-.3-.2-.2-.4v-.7l-.1-.1-.3-.2h-.6l-.2-.1-.2-.5v-.4l.1-.3-.2-.3h-2.9l-.6.2-.6-.2-.5-.1-.1-.4v-.7l-.5-.5h-.9l-.2-.2-.3-.5v-.6l-.5-.6-.5-.4-.4-.3h-.8l-.3.2-.3-.3v-.3l-.4-.5h-.4l-.4-.2-.3-.2-.2-.2v-.8l-.2-.3-.3-.7v-.9l-.8-.1-.6-.1-.2-.6h-1l-.4-.6-.5-.2-.1-.3v-.3l.2-.3v-.2l-.3-.3-.5-.2-.7-.6-.8-.7-.8-.3-.7-.5h-.9l-2.2-1.5-.7-.3-.8-.2-.8.2-.5.2-.4.3h-.8l-.6-.3h-.3l-.3.1h-.5v1h-1l-.3.2-.5.7v.3l.5.5v.1l-.6.1h-.3l-.1.2.4.2.6.1.4.2.2.3-.2.3-.2.2h-.8l-.4-.3h-.5l-.3.1-.3.3-.4-.1h-.2l-.4.2-1 1-1.5.8-1.5 1-.7.6-.5.4h-.2v-.6l.1-.3-.3-.2h-.3l-.5.2v.5l-.2.2h-.4l-.1.3-.2.5-.2.1-.7.1h-1l-.8.1h-.4l-.4.5-.4.3h-.3l-.6.1h-.4l-.4.4-.4.2h-.6l-.7-.9-.3-.8-.2-.7v-1l.1-.3.2-.3.3-.2.2 1.6v.7l.2.8.5.5.3.2.2-.4.3-.7v-.8l-.2-.9-.5-.6-.4-.4-.4-.7v-.3l-.4-.2h-.7l-.6-.2-.4-.2-.3-.2v-.6l-3-1.2-.1-.4v-.2h.2l.7.1 2.1 1h.3v-.3l-.2-.3-.3-1h-.7l-.5.3h-.4l-.7-.4h-.4l-.4-.2-.6-.5.5-.4v-.4l.2-.3v-.2h-.2l-.4.2h-.2l-.2-.2-.3-.7-.4-.1h-.5l-.3.5-.3.1-.4.5v.4l.4.2h.4l.4-.6h.3v.3l.2.3h.3v.1l.1.5.2 1v.1h-.5l-1.8-1.2-1.3-.7-.8-.4-.8-.3-2.1-.5-2-.5-1.2-.2h-1.1l-.6-.2h-1l-.3-.2v-.3h1.3l.5-.2.5.2.4-.2.2-.2h2.2l.7.2.4-.1v-.5l-.4-.4-.6-.4-.7-.3h-.4l-.5.4-.2.1h-.6l-.5-.1-.6.4h-.7l-.2-.1-.2-.3-.2-.3h-.6v.4l.1.2v.4l-.3.1h-.5l-.2.1-.3.5h-.4l-.2.3h-1l-1.3.2h-.8l-1.2.4-1.3.3-1.2.4-.9.3-.6.2-.4.3h-.8v-.2l.2-.1.2-.4.6-.2.8-.3h.4l.5-.3.6-.6.1-.1v-.4l-.1-.2h-.4l-.2-.4v-.3l-.1-.5-.1-.2h-.2l-.3.5-.3 1v.4l-.2.1h-.6v-.9l-.2-.2-.3-.2-.5-.5h-.6l.2.4.2.4.3.6v.6l-.3.6-.4.4-.6.4-.6.5h-.2v.3l-.1.3h-.3l-.8.2-.2.1-.1.4-.1.1-.5.2-.9.4h-.3v-.4l.7-.6v-.6l-.4.3h-.7v.9l-.7.2h-.2l-.1.3v.5l-1.3.3-2.4.6-1.1.3h-.7l-.6.1-.9.2-.2-.2.1-.3.3-.2h.7l.8-.2 1.3-.3h.5v-.8l-.4-.3-.5-.8-.2-.3-.4-.2-.5-.2-.4-.4-.2-.9-.3-.6.4-.8v-.4l-.2-.7v-1l-.5-.5-.9-1.8h-.3l-.2-.2-.3.3-.1.7v.9l-.2.5-.2 1.1v.4h-.2l-.2.3v4.7l-.2.4-.3.1h-.2l-.3-.3-.6-.4-.2-.3h-1.7l-.3-.4-.7.3-.4.2.1.3v.3h-.7l-.5.4h-1.1l-.4-.7-.2-.4h-.3l-.4.2-.5.5-1 .4h-1.2l-.3-.4v-.4l-.4-.2-.4-.1-.4-.2-.3-.2h-.3l-.2.3.5.4v.2l-.3.3-.9-.2-.8.3h-1l-2 1.1-1.5.7h-.3l-.2-.2-.1-.7h-.9v.7l.3.3-1 .6-.3.4-.3.7v.4l-.4.3-.6.3-.8.4h-.9l-.9-.1-1-.2-1.2-.3-.7-.4h-.6l-.7-.5h-.8l-.7.1h-.3l-.1-.6-.1-.4-.4-.2h-.3l-.6-.7h-.8l-.8-.4h-.7l-.6.2-.4.5-.4.7-.3.3-.4.1-.1.1v.8l-.4.4-.5.6-.4.3-.1.6v.5l.2.3.2.6.4.2.6.3h1l.7.2 2 .2h1.5l.6-.2.7-.3.5-.5.5-.5v-.3l.3-.6.2-.2h.3l.3.2.2.5.4.1h.6l.2-.6.1-.4h.4v.8l.2.1.3-.6.5-.2.3-.2.3.1v.2l-.5.5v.6l-.3.1-.3.3v.3l.1.4h-.4l-.7-.3-.5.1-.3.3-.3.8v.5l.2.3.3.2.8.2.6.2.4.3.6.7h.6l.4-.3.5-.4.1-.9v-.6l.2-.7.5-.5.6-.3v-.6h.3l.5.2h1.7l.5-.3 1.5-1.7.3-.2h.3l.1.2-.4.7v.7h.7l.1.3-.3.4-.4.6v.5l.3.4v.6h.6l.3.3-.2.4-.6.3-.8.3-.4.3-.3.4v.7l-.2.3H670l-.3.2-.5 1-.1.4.1.7-.2.2-.3.1h-.8l-.4.2v.6l-.4.1-.5.2-.3.2-.1.4.3.6v.6l.3.5.4.3.4.6.5.3-.2.7.4.3.6-.1h.5l.4.2h.8l.9.6v1.2h.3l1-.3.3.4.4-.3h.3l.1.7h.5l.4.7h2.1l.2.3v.3l-.8.3.6.6v.3l-.4.6h-.3l-.5-.3h-.5l-.3.2-.1.8.1.3.2.6-.1.2h-.3l-.6-.4-.6-1.2h-.3l-.3.2-.8 1.6-.4.4-.4.3h-.4l-.2-.3v-.3l.5-.5.4-.4.2-.3v-.8l-.4-.3-.5-.2-.4-.4-.6-.2-.2-.6-.5-.7-.4-.5h-.3l-.2.5-.5-.2-.6-.3h-.7l-.3-.2-.3-1-.3.2-.2.1H664l-1-.2-.4-.6-.2-1.5v-.2l-.3-.1-.6.1-.6-.3h-.6l-.5.1-.7-.5-.3.6.4.2v.5l-.3.4v.3l.4.5v.4l-.5.3-.2.3v.5l.2.3.8.7.1.2v.1l-1 1-.5.3-1.1 1.2-.9.4h-.3l-.4-1.6-.3-.5-.5-.3-.4-1.2-.3-.3-.4.2-.5 1-.3.7-.2.1-.7-.2-.2-1.1-.4-.6h-1l-.4-.3-.2.2.2.3v.5l.2.2v.5l-.9.4-.7.6-.1.3-.1.8h-.7l-.6.3-1 .5-.7-.3-1.2-1-.6-.5H642l-.3-.2h-1l-.3-.8v-.7l-.3-1-.3-.5-.2-.3-.6-.1-.3-.2-.2-.6-.2-.2h-.7l-.2-.4v-.6h-1l-.6-.5h-.7l-.3-.3-.1-.3h-.3l-1.3.7-.3-.3v-.2l.3-.5v-.4l-.5-.7-.2-.2h-.6l-.5.2h-.3l-.2-.1.2-.6.2-.5v-.6l.3-.4.3-.1v-.1l-.3-.3h-.6l-1 .4h-1l-1 .3-.5.2h-.3l-.1-.2v-1l.4-.4v-.3l-.1-.3h-.4l-.4.1-.6.1-.5-.2h-.3l-.2.3v.4l-.4.4-1.4.7-.6.5h-.2l.1-.4-.1-.3-.9.3-.2.2.3.6.4.3h.8v1.1l.6.1h.5l.4.1v.1l-.4.3v.3l-2.5.3-.5.3-.8.5-.7-.1-1-.1-1.5-.2-2.4-.1-.9-.3-2.4-1-1.8-.7-1.3-.9-.8-.2h-.8l-.4-.5-.3-.1-.7-.2-1-.1-.6.1-1 .2-.8-.2-.4.2H599l-1.2.2h-.8l-.8.2-.8.2-1 .3-.7.3-.7.3h-.5l-2.8.6h-.5l-4.4 2-.6.4-.4.1-.8.2-.8.4-1 .5-1.4.7-1.2.8-.6.8-.5.2-.3.3-.3-.3v-.2l.3-.5.8-.5.6-.8h.5l.3-.3.4-.4.3-.3h.8l.4-.1-.2-.6-.5-.2-.8.4-1.3.2-1.2.4h-.4l-.2-.2.1-.4.3-.7.6-1.1.4-2 .2-.9v-.3l-.3-.1-.5.6-.8.3-1 .7-.6.8-.5.7h-.3l-.7-.6-.5-.4-.4-.1h-.2v.3l.3.5v.2l-.2.6.4.3.2.5-.3.6-.1.3v.4l.3.2.6.3.6.2v.3l-.5.4v.3l.7.1.2.7v.8l-.1.8-.2.3h-.5l-.3-.2-1.3 1.7-.5.7-.8.3-.3-.2-.3-.3-.3.1v1.4l-.6.2-.3.5v.4l.3.2.8-.3v.2l-.6 1.2-1.6 1.1-1.1.8-.8.5-2.6 1.6-1.6 1.1-1.8 1.2-2.3 1.2-2.2 1-2.1 1.2-2.7 1.5-1 1-.6.3-.3-.4h.1l.4-.9h.9l1.2-1 2.2-1.1 1-.6.7-.5.4-.5 1.6-.3 2-1.3.5-.3v-.5h-1l-.8.6-1 .2-1.3.7-2.4 1.5-1 .3-.8.6-.4-.5v-.3h1l.2-.2-.2-.3-.7.1v-.3l.5-1.6v-.4h-.2l-.4.9-.5.4-.1-.5-.1-.4-.2.6-.4.9-.7.3-.4-.3-.4-.8-.1-.7-.5.3v.6l.7 1.4-1 .4-.6.5-.3-.3.3-.2.5-.3-.2-1-.3.9h-.4l-.2-.5-.3-.7-.8.4-.1-.8-.3-.4-.7.1h-.3l.1.7.3 1-.3.6v.3h1l.4-.2 1 .7.1.3-.7.4-.5.4v.4h.5l.7-.4h.8l.6 1-.7.4-.4.3h-.3l-.4.4-1.4.8-.6.3-.6.2-.2-.1-.3-.3-.2-1.3-.2-.2-.6-.2-.4-.6v-.5h-.5l-.2.1.1.5.5.5.1.4v.3h-.3l-.4-.4-.4-.1-.2.3.3.4.4.5.4.6v.6l-.1.5v.6l-.2.8-1 .4-.6.6-.6.3v-.7l.3-1 .2-.7h-.4l-.9.4.1.3.2.4.2.4-.2.5-.5.3h-.6v-.9l-.4-.4-.3.3-.6.3-.2.3-.4.1-.3-.3-.5-.1h-.4l.4.5v.3l-.2.4-.8.6h-.3l.2.4 2 3.7-1 .6-.7.4h-.3l-.4-.6-.4-.2h-1.1l-.6-.3-.3-.1-1.4.3-.4-.3H528l.4.6.5.4.8.2h.6l.4-.3.3.4-.1.3-.2.5v.6l.5.5.4.4v.2l-.4.5-.2.4.2.3.3-.3.7-.7.3-.3.2.4.1.4-.5.7-.4 1.5-.5 1.7-.6.6-.4 1.3-.7 1-.4.2-.5.4h-.6l-.3-.4.5-.1.4-.5v-.7l.1-.9h-.5v.6l-.3.6-.3.4h-.9l-.2.1.3.6h-.7l-.2-.7-.6-.4-.4-.7-1-1.3-.3-.1v.2l.6.8v.4l.5.6v.5l.5.4.2.4-.2.2-1 .2v.2l.7.4h1.4l.6-.1.4.1.5.4.5-.3.6-.2.5-.2.4.2v2.1l-.4.4-.4.2-.2.5.2.5.1.4-.2.4-.8.4-.2.3-.3.4.2.8-.2.6v.9l.5.3.5.6.3 1 .5 2 .2 1 .2 1.1-.2.5-.4.7.3 1.4.6.1.5.5.4.5v1.2l.1.3.5-.2.3.2-.3.3-.2.8.7.4-.2.9v.4l.1.5.5.3.5-.2.5-.1.3.3-.2.4-.6.3-.2.6.2.8.6-.3v-.3l.3-.2.5.5-.1-1v-.3h.5l.1.5-.3 1.8h-2.3v.4h-4.2l-1.6-.8-.6-1.1-.5-.1h-1.1l-.6-.2-.4.1-.3-.4-.3.2-.3-.4h-2.1l-.4.2-.2-.2h-.4l-.7.3h-.5l-.5-.4-.3.1-.6.1-.3-.2-.3-.1h-.5l-1.2-.5v-.5l-.1-.2h-.3l-.2.2h-.2l-.3-.9h-.7l-.3-.1v-.5h-.5l-.3-.1v-.5l-.3-.2-.4.2h-.3l-.5-.4-.4-.2-.2.3-.3-.2-.2-.2h-.6l-.2.3-.5-.1-1.3-1.3-.1-.3-.4-.3-.6-.2-.4-.4h-1.5l-.4-.2-.6-.2-.4-.3-1-.3-.4.3-.5-.2-.1-.4.1-1-1-1.4v-.7l-.3-1-.4-.5v-1l-1.2-2.8-.7-.3-.5-1-.6-.2-.2-.3-.2-.8-.4-.5-.5-.6-.2-.6.4-.6.2-.6v-2.2l-1-.8-.1-.4-.6-.3.3-.6.4-.6-.1-.8.1-.8.2-1-.7-.1v-.8l-.1-.8-1.5-1-.4.1-.4-.5-.7-.2-.6-.7-.5-.7-.2-.6h-.5l-.5-.4-.3-.7-.3-1-.6-1-.1-.7-.3-.3h-.4l-.4-.4-.3-1-.6-1-.5-.9-.9-.5-.8-.5-.2-.4-.5-.6-.8-.7-.3-.6-.1-.6-.3-.3-.1-.7v-.7l-.2-.6-.5-.5-.1-.3.2-.5v-.3l-.6-.2-.4-.4v-.9l-.2-.1-.3-.4-.2-.7-.7-.2-.2-.6v-.8l-.5-1.6-.4-.3-.2-.8.2-.5-.6-.2-.4-.4-.3-1-.3-2v-.3l-.4-.9-.8-.7-.4-.5-.3-.9v-.5l-.5-.2-.5-.5-.6-.6-1-.6-1-.6-.4-1.6-.4-.2-.5-.5-.9-.1-.8-.6h-.6l-.2-.6.3-.4.1-.8-.2-.3-.3-.1-.1.4-.3.4-.4.1-.2-.3.3-.8v-.5l-.3.3-.5-.2-.2-.2-.4-1.9h-.3l-.5.2-.4-.1v-.6h-1.3l.1-.4-.3-.2-.5.3-.6.4h-.8l-1.2-.2-.4-.2-.7-.4h-.4l-2 .2-.5-.8-1.5.5-2.9-1.5-.8-.5-1-.2-.6.3-.4 1.7-.3.2-1.1-.2-.7-.5-.4.6-.4.2-.5-.4-.8.4h-.9l-.7 1.4-.6.5v.8l-.5-.3-.1.6-.3.8-.5.2v.9l-.4.5v.7l-.2 1-.8.3-.4 1-.1.5.3 1h-.5l-.5.6-1 .3h-.4l-.4 1-.8.4-.5.8-.3 1.1-.3.3-.5-.2h-2.2l-.8-1.3h-.2l-.5.4h-.3l-.8-.9-.5-.1-.3-1.3-.9-.4-.4-.3H423l-1-.4-.6-.7-.3-.4h-.6l.3-.6-.3-.3-1-.3-1-.3-1.7-.4-1-1-1.2-1-.7-.3-.5-1.1-.2-.6-.7-.6-1.1-.3-.6-.3-.8-1.2-.7-.2-.6-.7-.3-.5-.5-2.7-.6-.3-.3-1.4-.5-1-.3-1.7.2-1.7.3-1.2-.2-1.4-.5-.8-1.2-2.3-.5-.3v-.6l-.1-1.7-.2-1.3-1-.7-.3-.6-.4-.9-.3-.2-.9-.3-.7-1-.8-.7-1-.6-1-.5-1.6-1.2-1.3-1.5-1-1.1-.6-1.1-.2-1-1.4-1.3-1.2-.6-.6-.9-1-1.6-.8-.8-.5-1-.6-.7h-.5l-1-.1-.5-.7-.7-.6-.8-.6-.3-1-.6-1-.4-1-.4-1.4-.7-1.5h-1.3l-.7-.4-.5-.6-12.8-1.6-15.2-1.9-.4 2.3-.9 6.3-4.6-.5-6.6-1-2.6-.4-3-.4-6.6-.8-6.2-1-6-1-2-.3-2.7-.4-6-.8-2-.6-2.9-1.6-1.4-.8-3.8-2.1-6.3-3.7-4.6-2.7-5.3-2.9-4-2.4-4-2.4-2.5-1.5-1.8-1.1-4.2-2.7-4.5-2.6-4.3-2.5-5.8-3.6-1.7-1 .4-1.3.9-1.7.8-1-22.8-2.6-16.8-2 .2-1 .1-.5v-.5l-.5-.5v-.4h.2l.6 1 .3.3v-1.2l-.4-.4-.3-.4-.1-.3h-.4l-.4.4-.2.1-.2-.3v-.8l.5-.2.2-.4v-.2l-.3-.3-.3-.4v-.6l.5-.3.3-.8v-1.5l.1-.8-.2-1.6-.4-1-.2-1.4-.6-1.2-.3-1-.5-.7-.7-.8-.5-.7-.2-.6-.8-.8-.5-.6-.4-.6-.3-.8-.6-1-.5-.9-.5-.3-.4-.1-.5-.7-1-1.5-.6-.8-.3-.3-.2-.2-.6-.4-.6-.3-.6.2h-.5v.4l-.3.2h-.6l-.3-.4-.3-.2-.6-.4-.3-.4.1-.4.4-.4.2-.6V307l-.6-1.5v-.6l-.4-.4-.8-.5-2-.7h-1.8l-.6-.3-1.7-1-.3-.3-.6-.4-.4-.7-.5-.1-.8-.1-.7-1-.2-1.6-.3-.9v-.5l-1.4-1-.8-1-.5-1-.8-.4-.6-.6-.7-.3-1.5.1-.8-.4-.8-.3-1-.2-.7-.4-.9-.7-.7-.3-1-.3-1-.3-2.4-.5-2-.4-.4-.4-.3-.9-.4-.9-1-.6-.5-.4v-1l.8-1 .3-1-.2-1 .3-.7.7-.6-.2-.8-.1-.4-.2-.5.3-.4.3-1 .5-.7.4-1.4-.1-.9-.5-.4-.5-.3-.2.3h-.3l-.6-1-.6-.6-.4-1.1.1-.6.7-.5h.2l.2.3h.2l-.2-1.4-.2-.9v-.5l-.6-.1-1.2-.5-.4-.8-.7-1.6-.5-1.3-.5-.5-.6-1-.4-.5-.2-.9.2-.7-.4-.4-.3-.8-.5-.7-.4-.6-.3-.8v-1.3l-.3-1-.5-.5-.2-1.2-.4-1.5-.6-.8-.3-.6-.5-.3-.6-.7-.5-1-.4-.6.2-.6.1-.6v-1.7l.1-.7-.3-.7v-.2h.4v-.7l-.1-.2.4-.7.5-.2.6.2.2.2.8-.4.7-1 .4-1.1.3-1.3v-.2l.2-.5-.4-.7-.3-1-.6-.6-.3-.3-.4.2-.4-.1-.2-.3h-1l-1-.7-.7-.9-.6-.9v-.8l-.3-.5-.5-.3v-.5l-.2-.3-.1-.8-.4-.7v-.8l.4-1 .4-.8.2-1-.3-.3-.1-.7.2-.7v-.4l-.6-.4v-1.3l.3-.8.5-.2v-.8l.4-.5-.1-.4v-1l.2-.4h.6l.6-.2.1.3h.3l.6.2-.1.3v1.1h-.3l-.4.2v.8l.2.4-.3.4-.2.4.5.4.8.5.4.5.2.5.5.5.6.4.2.4.2.2.1.4.2.3.6.4.5.1.4-.2v-.4l-.6-.4-.6-.6-.3-.5v-2.1l-.2-1.2-.5-.8-.6-.8-.4-.7.3-.7v-.4l.2-.4.1-.6-.3-.4-.4-.4-.4-.2v-.6l.1-.1.4-.4.3-.4v-.2l.8.2.4.1.4-.3.4-.1Z" class="map-bkgrd"/>
    <path d="M930.3 149.5v.9l-.6.2-.7.4-.8.2-.9.3-.4.2h-.4v.3l-.4.5-.3.2h-.3l-.2-.3-.1-.4v-.2h.7l.4-.6.3-1.3.6-1 .3-.2h.1v.5h.4l.4-.3.3.2.2.7.3.2.5-.1.1-.3.2-.4h.1l.2.3Z" class="map-bkgrd"/>
    <path d="m936.5 150.3.3-.2.2-.4v-.3l-.4.1-.2-.2.1-.5-.3-.4v-.2l.2-.1.3.2.5.4.2.6.4.4.3.2v.3l-.2.2-.6.4-.4.2h-1.6l-.4.2-.5-.3.4-.3.3-.2.4-.1.6.2.4-.2Z" class="map-bkgrd"/>
    <path d="M883 173.9v.3l-.1.3-.1.5v.6l-.4.3-.2.2-.2-.2.2-1 .3-.7.1-.8.2-.2h.1v.3l.2.4Z" class="map-bkgrd"/>
    <path d="m879.4 181.3.5-3 1.4-1 .7.8-.2.5-.5.9-.4.5-.2.5-.6.5-.7.3Z" class="map-bkgrd"/>
    <path d="m903.4 167 .6-.4v-.6l.4-.2.1-.4v-.5l.2-.4h.4v-.6l.5.4h.4l.2-.4.2-.4.5.1.2-.2.2-.4h.2l.4.5h.7l.8-.5.4-.6.3-.4.6-.6.6-.1h.2v.5l-.1.4-1.6 1.3-1.2 1-1.6 1.2-1.2 1.5-2.8 1.8-3.4 2.8-3 2-1.6 1-.5.2h-.3v-.4l.6-.3.5-.1 2.5-1.9 2.4-1.8 1.2-.8.2-.2v-.3h-.4l-1.2.8-.5.2-.4.4-.6.6-1.3.6-.6.2h-.4l-.5.6h-.5l-.5.1v.4l-.3.3-1 .1-.2.5-.4.1-.7.2-.2.4-.4.3-.9.5h-.5l-.6.3-1.5.9-.5.1-.3.8-.7.4-.7.1-.5.4-.4.2h-.4v-.3l.5-.3.6-.4.4-.2.1-.4v-.2l-.3-.3-.5.3h-.5l-.4.4-.4.3-.2.7v.3l-.8-.1-.1-.5-.2-.3-.2-.4-.2-.3.1-.3.3-.2.3-.4.2-.5.3-1.1h.3l.4.1.2-.1.2-.4.2-.5.1.3h.7v-.5l.3-.1.2-.2-.2-.5.2-.3h.4l.3.4.1-.1v-.2l-.2-.4.4-.6.8-.8h.5l.4.5.4-.5-.3-.4v-.4l.3-.1.8.4.4-.1.2-.5.3-.1h1.8l.4-.2.4-.3v-.7l.4-.4.6.2 1.8-.4 2.1-.8 1.7-.5.9-.6.7-.6.9-1.2.9-1.3 1-1 .4-.3h.7v.3l-.3.3h-.8v.7l-.5.4-.3.4.2.7-.4.3-.2.6-.4.3-.4.1-.2.3-.1.5-.3.3-.6.3v.4h.3l.7-.2.5.2.2.4-.2.5.7-.2.5-.5-.6-.4Z" class="map-bkgrd"/>
    <path d="m200.4 6.7.3.6.2.3.3.4-.5.3.1 1-.4.2-.3-1-.5-.1-.2-.2-.2-.4-.1-.7v-.6l.4-.2.2-.6h.5l.2 1Z" class="map-bkgrd"/>
    <path d="m202 10.6-.2-.3.2-.3-.4-.3V8.6h.5v-.3l.5-.3.1.4-.2.8v.5l.4.1.2.4-.3.5h-.8Z" class="map-bkgrd"/>
    <path d="m203.9 7-.4-.3v-1l-.5-.3V7l-.5-.2-.3-.7-.7.3.2-.9.4-.3.6-.1.3-.8.5.3.8.8.5.3v.5l-.6.2-.3.4Z" class="map-bkgrd"/>
    <path d="m202.7 15.5-.3-.9v-.5l1-1.2.8-.7.3-.3.9.3-.2.5.4.2.3.4.1.8h-.6l-.5-.2-.4.3-.4-.3-.2.6h-.7l-.2.3.8.2.7.9-.2 1.7V19h.2l.3-.9.4.1.4.7.6 1 .2.6-.4.8v.3l-.6.4-.5-.5.1-.8v-.4l-.5-.2-.5.2-.2-.4.2-.3-.4-.4-.1-.8.2-1.2.2-.8h-.8l-.4-.8Z" class="map-bkgrd"/>
    <path d="m121.6 538.7-.8-.3-1-1.9-.7-.7-.3-.6h.2l.9.7.5 1 .3.6.3.6.5.4.1.2Z" class="map-bkgrd"/>
    <path d="m142.6 543.3-.4.3-.2-.3.2-.6.2-.1.3.6Z" class="map-bkgrd"/>
    <path d="M144 543.6h-.5l-.4-.5.2-.4.5.5.2.4Z" class="map-bkgrd"/>
    <path d="m134.8 541.6-.2.2-.6-.7v-.1h.4l.2-.2v-.2l-.1-.4-.4-.5-.1-.3.2-.1h.3l.7.2.3.6.2.3.7.3h-.4l-.3.2-.5.6-.4.1Z" class="map-bkgrd"/>
    <path d="M138.4 542.4h-.4l-.7-.3-.5-.1-.5-.2h-.4v-.2l.1-.1 1.7.1h.4l.4-.2.3-.5h.3l.2.3-.2.2-.2.2-.2.1-.3.7Z" class="map-bkgrd"/>
    <path d="M141.4 542.2v.3l.5.1.1.2-.2.5v.1h-.2l-.1-.2-.3.2-1.3.3-.1-.5-.8.4.9-1.3h.5l.3-.1v-.5l.5-.6.5.2.1.4v.2l-.4.3Z" class="map-bkgrd"/>
    <path d="M119.3 533h-.3v-.5l.3-.1.2.2v.3l-.2.2Z" class="map-bkgrd"/>
    <path d="M124.5 535.4h-.4l-.4-.3-.1-.4.1-.3.7-.1.5.7-.4.4Z" class="map-bkgrd"/>
    <path d="m144.4 542.1-.2.2-.3-.4-.1-.2v-.2l.2-.3.4.1.2.2.1.3v.2l-.3.1Z" class="map-bkgrd"/>
    <path d="M114 531h-.6l-.1-.4v-.1l.8-.3.5.1.3-.1.5-.6.3.1.1.2-.2.3-.4.3-.2.4h-1Z" class="map-bkgrd"/>
    <path d="m156.3 544.9.8.5 1.2.4.4.2h-.8l-.2-.2h-1.2l-1-.6h-.7l-.2-.2-.2-.2-.2-.3v-.2h.3l.6.5.1-.1h.6l.5.2Z" class="map-bkgrd"/>
    <path d="M161.7 545.3h-.3l-.4-.2.3-.3.3-.2.4-.2.4.3.2.4-.9.2Z" class="map-bkgrd"/>
    <path d="m150.8 544-2.6-.5-.3-.4h.4l.5.1h4.2l.3-.4-.6-.4v-.2h.3l.4-.3h.7l.4.5v.6l-.3.3h-.5l-.2.2.1.5-1.1.2-1.7-.2Z" class="map-bkgrd"/>
    <path d="m99.4 519.5-.3-.1v-.3l-1-.6.3-.2.4.1h.8l.5.3-.3.3-.4.5Z" class="map-bkgrd"/>
    <path d="m170.6 545.2-.4.2v-.5l.2-.2.6-.3.3.1.1.2v.2l-.2.2-.2.1h-.4Z" class="map-bkgrd"/>
    <path d="m176 544.4-.2.3-.8-.3h-.5v-.2l.1-.2h1.1l.2.2v.2Z" class="map-bkgrd"/>
    <path d="m98 512.9.5.6.6.2.4.7.5 1h-.5l-.2-.1-.7-.2-.3-.2h-.9l-.5-.6.1-.8-.4-.4-.3-.4 1-.1.6.3Z" class="map-bkgrd"/>
    <path d="m185 542.3-1.7.6-.6.5-.5.5-.3.2h-.2l-.3.2-.6.3h-.2l-1.7.6h-.1l.1-.3.6-.2.3-.3.5-.4.2-.2.1-.2.2-.6.1-.1.4-.4.3-.1h.4l.6.2.3-.2.1-.1-.1-.2v-.3l.1-.4.3-.3.4-.3.5-.1.6-.1h.4l.6.6.1.2-.3.4-.1.3-.6.2Z" class="map-bkgrd"/>
    <path d="m193.7 541-.2-.2v-.1l.2-.2.2-.2.2-.1h.2l-.2.4-.2.2-.2.2Z" class="map-bkgrd"/>
    <path d="m192 539.3.2.4.4-.2.3-.2.3-.4.1-.2.2.3.4.4-.5.4-1 .5-.3.4v.2h1v.3l-.2.1h-.4l-.4.3-1 .5-.4.4h-.9l-1 .1-.6.2-.2.2h-.6l-.3.2-.2.1h-.7l-.5-.4v-.2l.5-.3h.8l.6-.2 1.1-.3.4-.2.4-.8h.2l.2-.4.6.1.2.5.2-.3.3-.2-.1-.1-.5-.3-.4-.2h-.2l-.2-.2-.1-.3v-.4l.2-.3.3-.2.3-.1h.6l.6-.1h.3l.2.1-.1.8Z" class="map-bkgrd"/>
    <path d="m195.9 538.6-.2.1h-.7l-.1-.1-.1-.5v-.3l.1-.1.2-.2h.8l.5.6.2.3v.1l-.2.1h-.5Z" class="map-bkgrd"/>
    <path d="M197.3 538.3h-.2v-.9l.2-.2h.3l.1.5.2.2.2.1h-.3l-.5.3Z" class="map-bkgrd"/>
    <path d="m211.5 538.4-.5.1-.4-.2-.3-.4v-.4l.8.3.2.2.2.4Z" class="map-bkgrd"/>
    <path d="m213 535-.3-.2-.1-.2v-.3l.6-.4h.2v.5l-.2.5-.1.1Z" class="map-bkgrd"/>
    <path d="m207.9 533.2.2 1.4.2.3.2.2.4.2.2.2.2.3v.1l-1.2-.7-.9.7h-.2l-2.3-.2h-.4l-.4.2-.6.7-.3.2-.3.1-.6.1-.7-.1-.4-.2v-.4l-.2-.6v-.2l.2-.3.7-.4.2-.1 1-1.4.3-.2h.3l.7.2.6-.3 1.4-.5h.3l.9.1.2.1.2.3v.2Z" class="map-bkgrd"/>
    <path d="M226.6 535.4h-.2l-.2-.5v-.2l.3.2v.5Z" class="map-bkgrd"/>
    <path d="M226 534v.6h-.1l-.2-.1-.2.1-.2-.1.1-.2v-.2h.2v-.4l.2-.3h.1l.1.5Z" class="map-bkgrd"/>
    <path d="m352.6 518 .8.9.1.3-.3.3h-.6l-.1-.1v-.6l-.4-.2h-.3l-.1.2-.2-.4v-.4l-.2-.5-.2-.4.3-.2.6.3.6.9Z" class="map-bkgrd"/>
    <path d="m224.4 534-.3.1-.1.2-.3.1-.2.2-.6.7-.3.2.4-.7v-.9h.3l.4-.5h.2l.3-.6h.2v.4l.2.4-.1.2-.1.2Z" class="map-bkgrd"/>
    <path d="M346.5 521.7h.2v-.4h1v.5l.2.6v.3l-.1.4h-.5l-.5-.4-.8-.5-.4-.4-.1-.2h-.2l-.7-.8-.4-.7h-.8l-.3-.3v-.4l.5-.3 1.2.5.2.3.5.4.2.5.2.2.7.7Z" class="map-bkgrd"/>
    <path d="M222.4 532.1v.6l-.7-.4-.1-.2.1-.2h.6l.1.2Z" class="map-bkgrd"/>
    <path d="M220.8 532.1h.2l.4-.4v.1l-.1.4.2.7.1.3-.6.2-.4-.2h-.2l-.2.2-.1-.2v-1.3l.3-.3.3-.2h.1l.1.2v.5Z" class="map-bkgrd"/>
    <path d="m343 517.4.1.2v.1l-.4.7v.5l-.1.2-.1.4-.4.5-.2-1.1-.7-.5.4-.5h.3l.5-.1.4-.4h.2Z" class="map-bkgrd"/>
    <path d="m244.1 529.6-.2.2h-.3l-.2-.1v-.2l.5-.7h.2v.8Z" class="map-bkgrd"/>
    <path d="m353 514.4.2 1v.9l-.3.6h-.3l-.4-.3-.2.1h-.3l-.2-.3v-.4l-.2-.3v.4l-.2.3-.4.5-.1.7v.4l-.4-.3-.5-1-.2-.4.2-.8.2-.8-.5-1.9 1.2-1.4h.1l.8.5.8.8.3.4.3.7.1.6Z" class="map-bkgrd"/>
    <path d="M340 511.7h.8l.7-.3.3.2.3.3.2.3.1.3v.4h.1l1.7.3 1 .6.3.3.3.3.5.7 1 .8.4.2.3.2h-.6l-1.2-.4v.8l-.2.3h.2l.7-.4.9.4h.2l.4.5.1.1v.6h.2l.6-.3.2.1.4 1.4.2.4.1.3v.3l.1.2.2.3v1l-.4.1h-.3l-.5-.5-.6-.6-.1-.1h-.9l-.3-.2-.1-.5-.3-.4v-.2h-.3l-.1.2.2.4v.4h-.4l-.9-1-.9-.6-.3-.1v-.3l.3-.2h.2v-.2l-.8-.7v-.7l-.3-.1-.6.3h-.3l-.3-.2-.2-.3-.6.1-.2.1-.5-.3-.2-.2v-.2l.3-.3h.8l.3-.4v-.4l.1-.3-.1-.3-.3-.4h-.4l-.6.5-.5.6h-.3l-.2-.3.5-1 .1-.4v-.3l-.4-.2-.3-.7.1-.3Z" class="map-bkgrd"/>
    <path d="M343.5 511.4h-.5l-.9-.4v-.4l.2-.5.1-.1.9-.3h.3v.2l.1.2v.4l.1.2v.2l-.3.5Z" class="map-bkgrd"/>
    <path d="m346.6 511.5.4 1.2h-.4l-.3.4h-.5l-.2-.2v-.4l-.3-.2-.6.2h-.3l-.3-.4-.2-.5v-.2l.3-.3v-.7h.2v-1.5h.4l.7.6 1 .9.1 1Z" class="map-bkgrd"/>
    <path d="m248.1 524.7-.3.2h-.1v-.5l.2-.2.5-.5.4-.3h.3v.2l-.2.4-.8.7Z" class="map-bkgrd"/>
    <path d="M250.2 524.1h-.2l-.3-.2v-.2l.5-.3h.4v.4l-.1.2-.3.1Z" class="map-bkgrd"/>
    <path d="m182.7 515 .6.3h.3l.3.1v.2l-.6.3h-.2l-.4-.7v-.2Z" class="map-bkgrd"/>
    <path d="M342.9 509.2v.1l-.5.2h-.3l-.1-.3-.1-.3v-1.6l1 .6.3.3.3.4-.2.2-.3.2-.1.2Z" class="map-bkgrd"/>
    <path d="m337 508.4.4.5.4-.2.3.3.4.6v.4h-.3v1l.3.8.2.7v.8l.1.6v.1l-.1.1h-.2l-.2-.1-.1.5h-.3l-.5-.8-.3-1.7.4-.5-.4-.3-.8-.4v-.3l-.7-.6-.1-.2-.1-.7.2-.8.5-.2.5.1.2.2.1.1Z" class="map-bkgrd"/>
    <path d="m339.1 506.4.4.2v-.3l.3-.1h.6l.5.3.2.3.1.2.2.6.2.5v.7h-.1l-.6-.3-.7-.7-.5-.1.2.3.4.4.2.2.3.3.2.2.1.3.1.3v.5l-.1.1-.7.2-.4.3h-.7l-.2-.3-.2-.6-.4-.8-.2-.7-.5-.5-.4-.3-.4-.2-.4-.2v-.3l.3-.3.7-.2h1.5Z" class="map-bkgrd"/>
    <path d="m255.4 519.2-.5.3h-.1l-.4.5-.2.2-.4-.4.1-.6.3-.5 1.5.2h.1v.2l-.4.1Z" class="map-bkgrd"/>
    <path d="m182 510.3-.4.3-.4-.3v-.4h1.2l-.3.4Z" class="map-bkgrd"/>
    <path d="m331.7 505.8.6.7.5.6.4.7.9 1.5.3.6.2.3.3.9v.6l.3.7.3 1v.7h-.4l-.3-.3-.3-.3-.7-.9-.3-.4v-.8l.1-.5h-.2l-.3.3-.5-.3h-.3v-.7l-.2-.1-.5.3-.2-.1-.1-.2v-.7l.2-.8-.1-.2h-.6l-.4-.9-.5-.3h-.1l-.1 1.5-.2.4-.5.3v-.7l-.5-1-.2-.3.1-.4.4-.2.2-.2.1-.4v-.2l.1-.8.1-.2.5-.1 1 .5h.4l.5.4Z" class="map-bkgrd"/>
    <path d="M254.3 513.4v.2h-.2l-.2-.3-.5-.3-.2-.3v-.1l.1-.1.6.3.2.2.2.4Z" class="map-bkgrd"/>
    <path d="M255.8 513.6v.5l.2-.1.6-.5.4-.1h.4l.4.2v.3l-.3.4v.2l.4.5.7.2.1.2v.1l-.5.8-.2.2-1-.1-.9-.2h-.5l-.2.3h.9l.3.4.1.2v.4l-.4.1h-.4l-.4.3-.3.4-1 .1-.7.5-.2.2-.1.3-.3.2-.6.2.3.2.1.1v.4l-.5.9-1 .6h-.2v-.2l-.1-.1 1.2-1.4-.4-.1-.5-.4-.4.3v-.4l.3-.3v-.1l-.2-.1h-.3l-.4-.1h-.4l-.2.3h.4l.2.1.1.2v.2l.1.3v.3l-.3.4h-.4l-.6-1-.3-1.3-.6-1v-.3l.1-.6.6-1 .7-.2.4-.4h.7l.4.1.1.3v.2l.2.3.3.7.3.7.3.2.3.2-.3-.5-.2-.6-.1-1.2-.1-.3.2-.1h.4v-.2l-.5-.4-.3-.3v-.5l.2-.4h.1l.2-.1h.3l.1.2.4.8.2.2h.2l.1-.1.2-.3.1-.2h.1l.5.1h.1l.1-.2v-.4l.1-.1v-.3l-.2-.3.3-.2.9.3.4.3-.2.6Z" class="map-bkgrd"/>
    <path d="m326.6 499.8.8.6v.2l.1.5-.3.3.2.2h.3v-.1l.5-1 .1-.1h1.7l.3.3.2.4.2 1.1-.5.4h-.6l-.3.4.4.2 1.1-.2.5.4.3.5v.9h-.7l-.7-.4-1.3-.4h-.3l-.2.3v.4l.4.9-.2.5h-1l-.5-.5-.6-1-1.6-1h-.4l-.7-.7v-1l.2-.2.3-.4v-.6l.4.4.6.3-.1-.4v-.4h.5l.1-.2.2-.4.4-.3.2.1Z" class="map-bkgrd"/>
    <path d="M332.4 498.3v.2l-.6.1h-.6l-.4-.4v-.1l.5-.4.6.2.5.4Z" class="map-bkgrd"/>
    <path d="M331 499.2h1.1l.8-.4 1 1 .7.8.4.5.4.6.4.6-.6-.2-.5-.8-.2-.2-.2-.1-.3-.3-.5-.7v-.2l-.3-.2h-.2v.2l.1.5.4.6 1.1 1 .7.6.2.3.3.6-.1.4.4.5v.3l-.6.5-.3 1.4-.5.9-.3.2h-.2l-.2-.3-.2-.3-.2-.4.1-.4v-1.5l-.2-.5-.6-.5-.5-.5-.3-.7-.9-1.9-.3-.6-.3-.5-.3-.3-.3-.5-.2-.4v-.2l.4.1.6.6.3.4Z" class="map-bkgrd"/>
    <path d="M257.7 509.3h.2l.1-.4h.1l.5.3h.3l.2.4h.4v.6l-.3.5-.2.1h-.2v-.1l-.2-.3-.2-.3-.3.4v.2l.1.2v.2h-.6l-.3.3-.1-.2v-.4h-.2l-.2.6-.1.3-.4.2v.2h-.3l-.4.2h-.2l-1.4-.6-.3-.2 1.1-1.2.6-.5h.3l.4.2h.1v-.6l-.3-.4v-.1l.7-.3h.3l.3.2.3.2.2.3Z" class="map-bkgrd"/>
    <path d="M257.4 508.3h-.1l-.3-.2-.2-.2.1-.2.6-.5h.3l.1.2v.2l-.1.2-.4.5Z" class="map-bkgrd"/>
    <path d="m222.5 506.1-.3.1h-.4l-.1-.9h.2l.4-.5 1-.3h.2l-1 1.6Z" class="map-bkgrd"/>
    <path d="m288.7 495-.2.1.2-.5.3-.7.3-.4.5-.2v.3l-.6.5-.5 1Z" class="map-bkgrd"/>
    <path d="m274.8 494.7-.2.2h-.8l.1-.5.6-.4.7.4-.4.3Z" class="map-bkgrd"/>
    <path d="m276.1 496.6-.4.1-.1-.2.1-.6.2-.4h.1l.5-.8.5-.5.4-.7.4-1.1v-.4h.3l.4.2.3.3v.3l-1.2 1.5-.1.2-.1.5v.2h-.3v.3l-.1.4-.1.2h-.3l-.2.1v.2l-.3.2Z" class="map-bkgrd"/>
    <path d="m203.7 488.8.3.5h.8l.2.2.2.2v.7l-.2.4v.6l-.1.2.3.4v.9h-1.5l-.6.2-.2.2v.4h-.3l-.2-.5-.3-.2-1-.4-1.3-1.2-.6-.4-.4-.8-.4-1h.8l1.5.4.4-.5.2-.2h.5l.6-.3h.2l.2.2h.9Z" class="map-bkgrd"/>
    <path d="m286 491.2-.1.2h-.6l.5-.7.2.1v.4Z" class="map-bkgrd"/>
    <path d="M280.9 491v.2l.8-.2h.2l.1.1v.2l-.3.2-.8.5-.7.5-.2-.5-.2-.2v-.3h-.1l.1-.3.2-.3.2-.1.7.2Z" class="map-bkgrd"/>
    <path d="M276 491.5v.2l-.1.2.1.4-.1.6v.4l-.2.3h-.2v-.3h-.2l-.2-.5.2-.2v-.4l.1-.8v.2h.2l.1-.4.2.3Z" class="map-bkgrd"/>
    <path d="M258.9 493.3h-.2l.2-.4.2-.8.2.1v.1l-.3.8-.1.2Z" class="map-bkgrd"/>
    <path d="m178.6 482.3.7.7.5.1.3.6v.4l-.5-.5-.9-.2-.9-1.4-.4-.3.3-.6.6-.1v.8l.3.5Z" class="map-bkgrd"/>
    <path d="M274.6 488.6h-.7v-.7h.2l.3.1.1.2.1.4Z" class="map-bkgrd"/>
    <path d="M190 459v.3h.4l.5.3.5.3h.6l.8-.3h.9l.4.2.4.4.1.2v.8l.1.3.8.5.5.3v.2l.1.3.4.3h.5l.2.2.8.2 1 .5-.4.7-.4.3-.9-.4h-1l-.4.2-.4.5-.2.4-.2.2h-.2v-.2l-.1-.9v-.3l-.2-.1-.4-.4-.4-.3h-.2l-.2-.4v-.7l-.4-.3-.3-.4-1-.8-.3-.1h-.8l-.5.3-.5.2h-.4l-.3-.3-.3-.5-.1-.3v-.4l.1-.4.2-.4.4-.9h.4l.5.8Z" class="map-bkgrd"/>
    <path d="M212.3 443h-.2v-.1l.5-.3.7-.2-.4.3-.6.3Z" class="map-bkgrd"/>
    <path d="m287.5 415.9.5 2.2.4 2.3.5 2.2.4 2.3.5 2.3.4 2.2.5 2.3.4 2.3.5 2.3.4 2.2.5 2.3.4 2.3.5 2.3.4 2.2.5 2.3.4 2.3.5 2.3.4 2.3.5 2.3.4 2.3.5 2.3.4 2.2.5 2.3.4 2.3.5 2.3.5 2.3.4 2.3.5 2.3.4 2.3.5 2.3.4 2.3.5 2.3 1 .1 1 .1.1-.7 1.1.3 1 .3.4-.7.4-.7.8-.2 1-.3.5-.2.1.5v1.7l.7.5.7.3.8.2.5.8.8.6.7.5.6.4 1 .6.6.4.9.5.5.3.4.8.5 1v.6h.3l.5-.8.5-.6.6-.7.4-.5 1-.2.1-1.1-.4-1.4.5-.1.2-.3v-.4l-.4-.5.8-.5.6-.3.7-.8.8-.8.5.3.5.3 1 .6.2.2v.5l.1.4.8 1 .2.1h.5l.6.3.3.3.9.3.2.2.1.3.2.3.2.2.3.2.4.3.7.3.5.1.7.2.8.7.8.5.8.6v.5l1 .7.9 1 .8.8.5.4.7.6.8.8 1 1 .6.5 1 .8.4.5v.5l-.1.5h1.4v.6l.1.8h.7l.5.1v.5l.4.3.3.7.7-.3.3-.1.5.2.7.2.7.2.6.1h1.7l.5.4h.8l.6.7h1l.3-.4.3.3.3.3.2.5.2.5-.1.4v1l.2.5.2.5.3.4.6.8.2.4.2.4-.2 1.4v.6l.2.3-.2.8-.5 1-.2.7-.2-.1-1 .2-.8-.9-.5-.8-.6-.6v-.7l1-.8-.1-.1h-.4l-.2-.2-.4-.7-.2-.7-.2-.4-.5-1-.4-.4-1-.9-.2-.2.1-.5v-.4l-.8 1-1.2 1.1-.5.6v.4l.2.4v2l-.2.2h-.6l-.3-.2-.6-.9v-.2l.2-.3.1-.5.1-.8.1-2 .4-.2.7-.6-1.3.3h-.2l-.2-.2-.3-.4-.4-.3h-.8l-.5-.5-.2-.2-.3-.2v-.4l-.2-.1h-.6l-.3-.9h-.7l-.4-.1-.6-.4-.2-.3v-.2l-.2-.6v-.1l-.4.2-2.6-.2-.3-1.3-.9-1.5-.7-.6v-.3l.1-.1.2-.1 1 .2 1 .3-1.6-.9-.4-.3-.3-.4v-.4l1.3-.2v-.2h-1.3l-.3.2v.6l-.2.1h-.4l-.5-.5-.4-.3-.7-.5-.3-.4-.2-.6-.1-.6V496l.1-.3v-.2l-.1.1-.1.2-.2.7v1.2l-.2.4h-.2l-.5-.3-.7-.4-.8.1-.6-.4-1.1-1.3-.3-.7-.1-.1-.5-.2-.3-.2-.9-1.7-.8-1.2-.3-.6-.1-.7v.8l-.3.2.4.4.1.3h-.1l-.2.1.7.8.6 1.3.6.9.4.8.3.6.3.5.7 1.2.1.3v.5l-.2.1h-.7l-.3-.2-.5-.5-.6-.1-1.2.4-.2-.5-.1-.9-.2-.3-1-1.1v-.3l.6-.8h-.4l-.3.4-.1-.1-.5-.8-.2-.2.1.7.3.4v.2l.1.4v.2l-.1.2h-.5l-.4-.2-.3-.1-.2-.1-.2-.3-.3-.2h-1.1l-.7-.3v.1l.2.4.1.2-.1.2-.2.4h.1l.3-.1.3-.1h.6l.6.3h.2l.2.3v.1l.6.2.1.1-.2.6.7-.2h.4l.7.6.3.4.1.5v.2l-.2.2-1.3.5-.3.8h-.5l-.8-.4-1-.3-2.3-1-.1-.2-.2-.1-.3-.1-.4-.3-.6-.5-.4-.4-.2-.3-.4-.3-1-.6-.6-.2-.4-.1h-.5l.2-.3h-.8l-.8-.3-2-.7-1.2-.4-.6-.2-.3-.2-.1-.1.1-.2.3-.2.2-.3.3-.7v-.3l-.4-.4-.2-.5v-.6l.1-.2.1-.1h.2l.6.5v.2l.3.9.3 1v-.5l-.1-.6v-.6l.1-.2h.6l.2-.2-1.1-.2-.8-.7h-.5l-.3.4-.7 1.3-.2.3-1 .8-.8.3-1 .1h-.7l-2.1-.6-.4-.2.3-.7v-.2l-.3-.6-.1-.1h-.2v.2l.1.3-.1.2-.3.3-.5.3-1.8-.2-1.8-.1-1.6.1-2.1.7-1.1.6h-.7l-.7.1v-.2l.2-.2v-.1l-.5-.5-.6-.2h-.8l-.5-.1-.1-.2-.3-.2h-.5l-.2-.4v-1.6l.2-.4.2-.7-.5.6-.4.6-.4.7-.2.3-.3.4h-.5l-.8-.4-.6-.1h-.7l.3-.4.1-.3.2-.5v-.3l-1.8.2v-.3l-.1-.2v-.1h-.7l-.6.4-.3-.2.1-.1.2-.1.3-.5-.5-.2-.3-.2-.2-.2v-1.3l1.2-.6-.4-.1-.8.2-.4.4-.6.7-.4.2-.2-.1h-.6l-.2.2-.1.3-.1.2h-.2l-.3-.2-.3-.1-.2-.2-.1.1v.4l-.2.2-.6.3h-.3l-.4-.5v-.5l.7-1.7-.3.3-.5.7-.2.2h-1l-.2.3-.2.2v.2l.4-.3h.2l-.2.8-.1.7-.2.2h-.6v.3l.7.5h.2l.3.2v.9l-.2.2h-.7l-.3.4-.1.3.3-.2.4-.2h.6l.4-.2.3-.3h.2l.3.4.1.3v.3l-.3.2-.3.1-.2.2v1l.1.8v.1l-.1.1h-.2l-.2.2-.3 1.1v.1h-.4l-.1.1-.3.1-.4.2h-.4l-.6-.2-.3-.2-.2-.2-.6.3-.1-.1-.5-.7v.8l-.1.3-.4.6v1h-.2l-.3-1-.1-.1-.3.5v.9l-.7-.3h-.1l.2.6v.1l-.9 1h-.5l-.5.4h-.2l-.2-.2h-.1v.7l-.3.4-.6.7-.2.3-.1.5h-.1l-.5-.2-.5-.2v.1l.1.3v.1h-.8l-.4.1-.6.4h-.5l-.7-.6h-.2v-.1l.1-.5.2-.4.1-.1.6-.5.8-.2.4-.3.5-.6.3-.4.5-1v-.2h-.1l-1.3 1-.1.2h-.3l-1-.4-.2-.2-.2-.4.2-1.2.2-.5.5-.8.6-1 .2-.5.2-1.6v-.7l-.2-.8v-.5l.1-.2 1.4-.8.7-.7 1.2-.9h.4l.2.3.4.2.3.2h.5l.5-.3h.9l1.8.4h.4l-.3-.4-1.3-.2-.5-.2-1.5-.9-.4-.4.2-.1.3-.2.1-.2v-.2l.2-.4.3-.5.6-.4 1-.7h-.5l-.7.1-.3.2-.4.5-.2.3-.2.6-.1.2h-.5l-1.4.2-.3-.3h-.3l-1.2 1-.4.3-.3.5-.5.4-.7.3-.5.3-.5.5-.2.5v.2l.1.6v.1h-.4l-.5.5-1 1.2-.2.5v.2l.2.3v.2l-.4.4-.6.6-.5.2h-.5l-.5-.4h-.4l.5.4.5.5.4.4.1.3v.7l-.4.6-.4.2-1 .2-.3.2-.1.1.6.2.1.2v.5l-.3.2-.5.3h-.6v-.4l-.1-.2-.3.2-.7.6.2.2v.2l-.4.4-.2.3-.2.3-1.1.9v.2l-.3.7-.1.7.2.3 1 .3.4.1.5.2 1 .7.3.4v.7l-.4.5-.7.8-.3.2-.5.2-.2.2-.7.7-.1.4v.4l-.1.2-.9.5v.1h.3v.5l-.1.6h-.7l-.7.3v.5l-1.8.3-.4.8-.2.2-.8.6-.4.3-.5.1-.2.2v.3l-.2.2-.5.3-.2.5h-.1l-.8.2-.2.1v.6h-.2l-.3-.1h-.4l-.8.8-.2.2v.2l.1.1.2.4v.3l-.4.8-.1.1-.4.2-.2.4h-.6l-.2.3-.3.2h-.2l-.3.2-.3.4-.4.3-.3.1h-.8l-.2.1-.2.3-.2.6-.3.3h-.4l-.4-.2h-.4l-.7.5-.3.3h.5l.2.2-.3.1h-.6l-.3.2-.7.2h-.3l-.6.9v.1h.3l.3.2.2.1.1.3.1.4-.7.7-.2.2-.1.1-.1-.8v-.1h-.2l-.2.2-.4.8-.4.4-3 1-.4.2-.1.5-.2.4-.2.3-.2.2v-1.6l-.3-.2-.3.1-.3.2h-.4l-.4.3-1 .7-.5.1-.2.2-.3.4-.2.2h-.2l-.3-.2h-.3l-.2.4h-.2l-.6-.2-.2.1-.4.4-.4.2-.3.1h-1.3v-.7l.2-.4.1-.2.2-.1h.3l.5.2v-.1l-.2-.2-.5-.3-.4-.2h-.3l-.3.2-.3.2-.2.3-.3.8v.2l-1.3 1.4-.5.4h-.4l-.3.1-.3.3-.3.2h-.2l-.2-.2-.1-.1v-.1l.2-.1v-.3l-.2-.6-.2-.3h-.4l-.1.2v1.4l-.4.3-.7.3h-.2l-.5-.9-.5-.2v.7l-.2.5-.5.3-.3.2h-.2v-.3l.3-.6v-1.2l.2-.1.8-.5h.4l.1.1h.5l.2-.2v-.2l.4-.3.7-.4.7-.7.9-1 1-.9 1-.7 1.2-.5 2.2-.7h.2l-.2.3v.2h1.1l.3-.1v.4l-.5.2v.2l.5 1 .2.1h.2l.1-.1v-.7h1.1v.3l.3.2.4.1h.3v-.4l-.8-.7-.2-.2v-.4l.2-.4.3-.6.4-.8.4-.5.7-.6.5-.3 1.3-.9 2.2-.8.6-.6.8-.7.3-.1v.3l.1.2.5.2h.4l.1-.2v-1.4l.1-.3.4-.6.5-.6.7-.8.5-.3.4-.1.4-.4.7-.7.2-.2h.6l.1.2.1.1.5.2.3-.2-.3-.2h-.1l-.2-.6-.3-.3v-.8l.4-1.2.1-1.3.3-.7.5-.2 1-.1-.6-.4h-.2l-.4-.2v-1.3l.2-.6 1-1.1 1.1-.7h-.1l-.1-.3.5-1.5.6-1.4-.7 1.2-.8.8-2.2 1-1.5.7-.7.2-.5-.3-.3-.8-.2-.3-.2-.6.2-.7.2-.4h.5l.5.2h.4l-.5-.5-.8-.5-.4.1-.4.7-.4.4-.3-.1-.2-.2.1.5-.3.9-.1.6.2 1.6-.1.6-.7.2-.5-.5-1-2.1-.3-.6-.8-1h-.3l-.5.5-.3.1-1-.8-.3-.5-.4-.7-.6.3-.6.3-.8.6h-.4l-1.3.4-.3.3-.2.1-.2.6-1.6.3-1.6-.5.6-.2.6-.2.7-.5-.2-.9v-.4l.1-.5.7-.7h-.6l-.5.1-.3-.6v-1l.5-.7.3-.5.2-.6v-.6l-.1-1-.7-2.3-.2-1.6-.6-1 .7-1.2.7-1.2.9-.5h-.1l-.4-.1h-.3l-.3.4-.3.3-1 1.5-.6.7-.3.2.5.3v.9l-.2.7-.2.3h-.6l-.7.4-1.4.4-1.9.1-.9-.1-.8-.9v-.4l.2-.4-1.2-1.4-.5-1.3-.5-.1-.4-.4-.5-.6.1-.4.1-.3-.3-.3h-.4l-.5-.3 1.6-1.3.6-1h.4l.4.2.6.5.5.3.2.2.2.4-.4.6-.2.4.2-.1.8-.6.6-.5.3.1.1.1.2.7.3.7.8-.5.5-.7-.3-.4-.4-.2-1-.4.3-.2.7.1.3-.1-.3-.4-.3-.3-1 .7-1.7-.3-1.2-.6-1.2-.2h-.1l-.2-.4.8-.5.5-.2v-.2l-.2-.1h-.6l-.1-.3v-.4l-.3.2-.2-.2-.2-.2.1-.2.3-.3h-.3l-.3.3v.4l-.1.5h-.4l-.3-.1-.2-.6v-1l-.6-.5v-.5l.5-.6-.1-.4-.5-.2-.5.2-.2-.3v-.4l.1-.4h1.3l.1-.2-.7-.5-.1-.5.3-.2.6.1h.9l-.3-.6v-.7l.3-.7 1.2-1.4 1.1-1.2.4-.2.4-.1.4.2.4.3v-.2l-.2-.6.7-.1.4-.6v-.2l-.4.2-.4.4v-1.5l.3-.9.2-.3.4-.4h1v.1l.1-.2-.4-.6.3-.5.2-.2 1.1-.2.6.2.7.6.3.6v.2l-.2.2-.3.1v.3l.3-.3.6-.3.3.2.2.3h1l.5-.3.6-.7.7-.4 1.1-1.3.4-.6h.6l.1.6.3.1 1.7.1.8-.1.7-.4.7-.8.4-.5.2-.7-.1-1-.1-.7-.1-1.8-.7-1.2-.5-.4h-.4l.3-.7.8.1h.5l.4-.4.2-.2.2-.6v-.9l-.3-.4-.3-.5-.2-.2h-.2l-1 1-.6-.1-.4-.3-.4.6-1.1.4-.6.4-1.2 1.2-.3.5h-.4V458l-1-1.2-.4.3.1.4.2.3.4.1-.2.3-.2.4-.3-.4-.7-.7-.7-.4-2-.3-1.4.4-.1-.2h-.4l-.1.3-.2.1h-.3l-.5-.1-1-.6-2.2-1-.6-.4-.4-1 .2-.5.2-.1.2-.8-.4-.3-.7-1.3-.3-.6h.1l.1.2.3.1h.8l.4-.7h.6l.5.1v-.2l-.2-.2-1.2-.6h-.2l-2.3-1-1.7-1.6v-.2l-.2-.5.4-.5.3-.1v.5l1.1-.4.8-.7 1 .1.3-.1.5-.4.6-.6.7-.3.5-.2.6-.1.5.4h.1l1 .3.2-.1h.2l.1-.2-.8-.8.2-.3.1-.3 1.2-.5h1.3l1.3-.7.8-.2h1.2l1 .2.3.3-.5-.1h-.3l.2.2.1.2v.3l-.5.9-.1.7-.3.2-.3.3 1 1.2 1.6.3h1l.5.3.4.1h1.2l.9.4h.4l1-1.5.4-.2.3.3.4.2.3-.1.2.4v-.8l-.1-.3-1.3-.8-1 .2-.2-.3.2-.7-.8-1.7-.4-.3-.4-.1-.2-.6-.1-.7.4-.3h.4l.3.2.3 1 .3.2-.2.9.4.9.9.9.8-.2h.6l.3.3.8.8.4.1 1.4-.2v-1.2l-.3-.3h-.9l-.6-.6h-.6l-1.2.7-.5-.3-.3-.5-.5-.5v-.8l.6-1 .4-.3-.3-.4-.7-.3h-1.4v-.6l-.6.6-.5-.2h-.8l-1.5-.9-.5-.8-.2-.6-.2-1.7-.4-1-3.2-4.1-1.5-1.2-.7-1-.4-.4-.5-.2-.6-.4.5-.3h.3l-.3.2.2.2.4-.2.2-.2.5-1.1.6-1.7v-.7l2 .5 1.4.1h2.2l.5-.2.9-.4 1-1 1-1.2.3-.3.2-.5.3-1.2.6-1 2-2.5.9-1 .3-.4.3-.3.1.4h.1v.2h-.1l-.3.4-.4.2h-.1.9l.4-.3 1.8-.4 1-.8v-.2l1.6-1h.2l.2.2-.5.7.3.3-.4.8h.6v.5-.3l.1-.6.1-.4.1-.4.4.2.8-.3-1-.1-.5-.9h-.3l1.2-1.1 1-.6h.2l.1.1v.2l-.2.2-.2.2v.2h.7l.2-.3 1 .1.3-.1.1-.2h1.6l.8-.6.8-.8.4-.4.6-1 .5-.7.9-.6h.2l-.3.2-.2.3.2.4 1.7.8.5.1.1.5-.1.4-.5.5-1 .5.4.3.1.4.3.1.4-.2.4-.2.7-1 .3-.5.1-.1.6.1.3.3.4.5-.1.4-.2.3.5.4h.6l.5.3.7-.6h1.2l.7-.4 1.2.4.3-.1h.4l.6.3.2.3-.6.6v.6l.1.3h.4v.4h1.3v.4l-.4.5 2 .2.2-.3.4-.1.9-.4.3.1.4.4h.7l.7-.6 1-.1.3.1h.4l1.2.4h.4l.6.8h.3l.3-.4h.3l.3.3h.5l.3.5.2.2 1.8.2.9-.3h2.5l1.2.7h.5l.2.2h1.6l.5-.5 1-.3.8-.5h1l.2-.1.2-.2 1.5.4.9.6.4.5 1.8.4.6.4.4.4h.2l.1-.2h.8Z" class="map-bkgrd"/>
    <path d="M437.3 511v.2h.4l.1.1h.3l.8.5.4.1.2.3h.2l.1.2.2.2v.3l.8.5.2.2h.1l.7.4v.2h.2l.1.3h.3l.3.2.3.4.4.1.2-.1h.3l.8.3.2.1h.4l.2.2.4.2h.3l.1.2h.3l.6.4.2.1v.1l.4.2h.2v.2l1 .5.2.2h.2l.5.3.3.1.5.5.4.4.5.3.3.2.1.3h.3l.5.5.2.4.2.1.2.3.2.3.1.3.2.1.1.3.3.1.2.4v.4l-.2.4-.1.2.1.2v.5l-.2.8v.3l.1.3h.6l.3-.1.2-.2.3.1.1.1h.4l.3.3.1.4v.4h.2l-.2.5v.8l.1.2.4.2h.3v.6l.4.3.1.2h.2l.2.3.3.2.2.2h.2l.1.2.4.1.4.3h.2l.3.3v.3l-.3.8-.3.2-.1.2-.1.1-.6.5-.3.1-.4.4-.5.2-.2.1-.2.1-.2.3-.6.5h-.2l-.1.3-1 .4-.7.2h-.3v.1h-.3l-.3.2-.2.1h-.2l-.4.3-.4.3h-.2l-.4.1h-.7l-.2.1h-.8l-.2-.2h-.3l-.3-.2-1 .2-.3.4-.5.2-.2.3-.2.2-.2.2h-.4l-.3.1-.3.2h-.2l-.4.3-.2.2-.3.2-.2.2-.3.1h-.2l-.3.1h-.2l-.4.2v.2l-.2.2h-.2l-.4.5-.2.1-.1.2v.6l-.3.5-.4.3-.2.3-.2.2v.5l-.2.2-.5.2-.2.3-.3.2-.1.1-.3.3h-.2l-.2.2h-.2v-.4l-.1-.3-.8-.8h-.4l-.4-.3v-.1l-.5-.4-.2-.1-.2-.3h-.4l-.3-.2h-.5l-.3-.4-.4-.1v-.5l-.1-.1-.3-.5-.2-.5-.1-.5.1-.3v-.2l.1-.1v-.6h.2v-.9l.2-.2v-.4l.1-.3v-.4l.2-.4.1-.4v-.3l.1-.2v-.4l.1-.2v-.3l-.2-.6v-.2l-.3-.6.2-.2-.2-.2v-.2h-.1v-.7l-.2-.1.2-.4v-.1l-.3-.2v.1l-.3-.1v-.6l-.2-.2v-.8l-.1-.2v-.8l-.1-.4-.3-.4v-.4l-.1-.2h-.3l-.2-.2h-.2l-.2-.3.2-.2v-.2l-.2-.2v-.2h-.2v-.6l-.3-.3.2-.2v-.3l.2-.4v-.2l.2-.4.6-.3.5-.5.3-.2.1-.2.2-.2h1.2v-.5l.4-.3.2-.3v-.2h.2v-.4l.2-.2h.2v-.2h.2l.4-.5.4-.2.2-.2v-.4l.2-.6v-.2l-.3-.4-.1-.3-.2-.1-.1-.3-.4-.5-.2-.7-.1-.1v-.4l-.1-.5v-1.3l.2-.6.2-.2v-.1l.3-.3h.2l.4-.1Z" class="map-bkgrd"/>
    <path d="M421.2 501.5h.1l.3.3.3.5v.2h-.2v.3l-.2.2v.2l.4.1v.3l-.3.2-.1-.1h-.4l-.4.2-.1-.1-.1-.3h-.2v.2h-.4l-.5.1-.2-.2-.2.2h-.5l-.1-.3-.2-.1-.2-.2.1-.2.5-.5.8-.1.5-.4h.3l.2-.3.6-.2h.2Z" class="map-bkgrd"/>
    <path d="M412.3 492.8h.2l.9.2.4.1.5.2.3.3 1 1.2.3.3v.3l.3.3v.4l-.3.4-.3.3-.2.3-.2.1h-.2l-.4.1-.5.3h-1.8l-.4-.5v-1.7l-.3-.7-.3-.3-.7-.4-.2-.4v-.3l.1-.2.5-.3h1.2Z" class="map-bkgrd"/>
    <path d="M421.3 491h.2l.3.3h.2v.1l.3.1v.3h.3v.2l.2.2h.1v.3l.2.5.2.2v.3h.3v.5l.2.1.1.4.1.1.2-.1h.3l.5-.1.2-.2.3.1.2-.1h.4l.3-.2v-.1l.6-.2h.3l.3-.2.4.2h.6l.1.2h.5l.6.2v.4h.3v.2l.4.4.2.3.4.2.2.4.3-.1v.1h.3v.6h.2l.1.3h.6l.2.1.3.2.2.2.6.1.4.2h.1l.1.3h.2l.2.4v1l-.2.6-.2.1v.2l-.4.3h-.2l-.4.3-.2.3-.5.2h-1l-.2.3h-.1l-.3.2-.3-.1h-.7v-.2h-.8l-.5.3-.4.1-.3.2h-.5l-.2.3H425l-.3-.2v-.3h-.5v-.7l-.3-.4h.2l.1-.3v-1.9l-.2-.1v-1.3l-.3-.2-.3-.1-.2-.1h-.2l-.2.1-.3.3h-.4l-.5-.4-.4-.1-.5-.4h-.4l-.2-.4-.2-.3h-.1l-.2-.4-.3-.2-.2-.4-.2-.3h.1v-.7l-.2-.2.1-.4v-.4l.2-.2.2-.5.3-.3v-.4h.8l.1-.4.7.1.2-.2Z" class="map-bkgrd"/>
    <path d="m406.6 485 .3.1h.7l.3.2.1.3h.8v.2h.6l.5.2h.3l.5.2h.7l.4.1.7.2.2-.1.2-.6h.3l.2.2.2.4v.2l.1.2.5.1.4.3.2-.2h.2l.4.2h.9l.3-.2h.4l.1.2.2-.1h1.1v.5h.6v.2l-.3.5-.2.1-.1.2-.3.1v.1l-.3.2-.3.2-.1.1h-.2l-.5.4h-.4l-.3.2h-.7l-.2.1h-.3l-.2-.2h-.5l-.8-.3-.1-.1-.5-.2h-.2l-1-.5-.1-.2-.6-.1-.3-.1h-4.1l-.8-.2h-.3l-.2-.1v-.2l.2-.3v-.2l.1-.2h.2v-.3l.3-.3h.2l.3-.3.3-.3v-.5l-.3-.3.2-.2Z" class="map-bkgrd"/>
    <path d="m392.3 481.5.2.2v.1h-.3l-.1-.3h.2Z" class="map-bkgrd"/>
    <path d="m390.7 480-.2.3v-.2l.1-.2.1.1Z" class="map-bkgrd"/>
    <path d="M390.8 471.5h.4v.2l.4.5.2.3v.2l.2.2.2.3-.2.5.2.2.1.3.2.1.1.3.1.1v.2l.2.2.3.4h.3l.1.3.2.5v.5h-.3l-.1.1.2.5-.1.3v.3h.2l.2.2h.2v.3l.2.1v.2l.1.1h.2l.2.4h.4v-.4l.2-.1-.4-.3v-.2l.1-.1h.3l.4.1h.5l-.1.2-.3.1v.4h-.2v.5l.2.2.3.1.2.2v1l.3.5.3.1.4.4h.3l-.1.3-.5.3-.4.2-.1.3-.4.1v-.6h-.5l-.6.1h-.1l-.4.1-.3.2-.4.1h-.3v-.5l-.3-.1-.1-.2-.6-.3v-.2l-.3-.4h-.2v-.2h-.3l-.3.1v.2h.1v.2h-1l.2-.2v-.2l-.3-.1-.2-.3.1-.3v-.1l.2-.1.4-.2.2-.3-.5-.4h-.2l-.1.4-.3-.2v-.2h-.2v.2l.4.7v.2l-.3-.2h-.1v-.3l-.2.1-.1-.3-.2-.3-.2.2v.2l.6.3h.2l.2.3v.3l-.1.2-1.3.2h-1.1l-.2.1h-.3l-.3-.2-.1-.5-.1-.4v-.5l-.2-.3-.2-.3-.3-.4h-.2l-.2-.3v-.5l-.1-.3v-.2l-.3-.2-.3-.4v-.2l-.3-.2.1-1.2-.3-.6-.6-.4v-.1h3.5l.4-.4.9-.6.4-.7.4-.3v-.2l.6-.3h.4v-.2h.2l.2-.1Z" class="map-bkgrd"/>
    <path d="m343 459.8.1.1h.4l.3.2v.4h-.2l-.2.2v.2l-.2.1-.2.7v.3l.1.3v.2h-.1l-.4.2-.3.1h-.8l-.4.2-.4.5v.2l-.4.3-.2.4-.1.2-.2.5-.2-.2-.2-.2h-.2v-.2l-.3-.4.1-.4v-.4l.3-.3.1-.4.2-.3.3-.2.4-.3.2-.2v-.1l.6-.1v-.2h.3l.5-.2h.2l.3-.6v-.2l.1-.2h.3l.2-.2Z" class="map-bkgrd"/>
    <path d="m359.4 455.6.1.3h.2v.2h.2l.2.1h.5l.2.3.3.4.2.2v.8l.3.2v.8l-.1.2h-.2v.3l-.3.3-.1.4h-.1l-.3.2-.2.6v.5l.1.2-.2.1.1.2v.7h-.6v.2h.2v.3h-.2l-.2.1-.3.1-.3.3v.2h-.4v.2l-.3.1v.1h-.2l-.5.3-.6-.3-.4-.2h-.2l-.4-.1h-.8l-.4-.3h-.3l-.2-.3-.3.3v-.2h-.3v-.2l-.4-.2v-.2l-.2-.3v-.2h-.3l-.1-.4h-.2l-.7-.2-.2-.2-.9-.4-.1-.1-.2-.5-.3-.3v-.4l.2-.9 1-.7.3-.7v-.2l.3-.3.5-.2h.4l.2-.1h.2l.4-.3h.2l.3-.3.6-.2.4-.2.2-.2h.8l.2.3h.5v.3h.4v-.4l.3-.2h.2l.3.2h.2l.5.1v.2l.2-.2h.3l.3-.2Z" class="map-bkgrd"/>
    <path d="m852 446.5.3.3.3.9v.7l-.4.2-1.2 1.3-.6.2h-.9l-.3-.3-1-.4-.9-.8-.5-.3.4-.6.4-1.1 1.2-.4 1.3.4.8-.2.7-.3.4.4Z" class="map-bkgrd"/>
    <path d="m991.4 443.8 1.1.3h.8l2 .6h.4l1 .3 1-.4.3.2.6.8h-.7l-.5.1-.8-.3-.3.6h-.6l-.8.5-.7-.6-1.5.2-.1.8-.7-.1-.2.2-.7-.3-.1.4h-1l.1.7-1.6.6-.4-.7-.5.3-.8-.2-2.1.3-.1.4-.7.3-1.4-.4-.7-.3-.4-.7v-.8l.6-.2h1.1l1.7-.5.7-.5h.6l1.4-.5h1.2l.6-.8 2.2-.3Z" class="map-bkgrd"/>
    <path d="m997.2 435.5.5.2.3.6-.3.4-.9-1.1.4-.1Z" class="map-bkgrd"/>
    <path d="m994.8 432.6.3.7.4.1.4.5 1.4-.4.6.4.3-.2 1.4.8.4.4-.4.3-.2.8-1.2-.3-.1-.5-1.3-.2v.5h-.5l-.3-.4v-.5l-.7-.4-.7-1.3.2-.3Z" class="map-bkgrd"/>
    <path d="m873.6 430.5-.1.5-.7-.5.4-.3.4.3Z" class="map-bkgrd"/>
    <path d="m950.2 425.6 1.5.3h.6v.4l-1.6-.2-.5-.5Z" class="map-bkgrd"/>
    <path d="M895.5 423h2.2l.8.1.7.3h.5l1.1.4 1 .6.3-.1 1 .3.8-.2 1.2.4 1 .1.7-.2 1.3-.3h1l1.2.3.2-.2 1.6-.2 1 .1 1.7 1 .8.1.7-.1.7.2.5-.6h1l.5-.4h1.6l.3-.3h1l2 .6h.7l1.1-.3 1.3.5h.6l1.2.3 2 .4 1-.1.4-.4v-.5l1.6-.3h1l.9.4.1-.3.8.2h.7l.5.3.3-.3 1.3.6.9-.2.8.4.8-.5.8.2.8.5 1.2.1h1.3l.7-.2.1.6.5.4.8.1 1.2-.7.2.8.5.5.8-.2.4 1 1-.6-.3-.5-.7-.5v-.3l1.7.3.6-.2 1 .3h.5l.5.4 1 .1.6-.1.7-.5.1 1h.5l.6-.2-.5-.6.2-.3.9.3 1.8.4h.5l1.1-.4.2.3 1.2.5 2.2.3.3.5.5.2.3.6h1l.6.2.7-.4.1.7.6.2.7.8.6.3 1-.5v.3l.6.6.7.3h1.2l.5.3.8-.2.6-.8.6.6.7-1 .4.1-.3 1-.3.5-.6.8.5.9-.1 1.2.1.6-.5.5v.5l.5.6-.2.6.9 1 .3-.3.4.9.7.4-.3.3-.4-.4-.3 1-.8-1-.5-.2-.4.3.2 1.1-.5.7-1-.5-.6.5-1.1.3-.3.7-.8-.1-.4-.3-.7.3-.5.6-.3.6-.8.4-1 1.4-.2.6v.5l-.6 1v.5l-.4.4v.9l-.4.6-.9-.3-.6.6-.2.8.2.5-.2 1h-.6l-.8.6h-.7l-.8 1-.4-.3-1.2 1H961l-1.1.4-.7-.3-.9.4-.8-.7h-1.2l-.3.2-1.3 1.3-1-.4-.3-.3h-1l-1.3.8-1.2.4-.7.4-.7.6-1.1-.4h-.6l-.4-.1-.5.5-.7-.7.6-.2 1 .4.5-.7-.8-.2-1-.6-1 .8-.4.2-.9.6-.6-.1-.3-.3-.7-.3-.7.4v-1h-.5l-.9-.6-.2-.4-.5-.2-.8.1-.8.6-.4-.1-.5.4-.5 1-.4.3-1-.8-.8-.3h-.5l-1.1-1.3h-.4l-.5-.6-1 .2-.5-.2-.8.1-2.2.9h-.7l-.4.3-1.1.4-.7-.5h-.7l-.6.4-.2-.9-.8-.3-.8.2-.6.3-.4.4-.5.1-.3-.3-1-.2-.8-.4-.5-.5-.7-.1h-.9l-.4.4-.1-1-.4.1-.5-.3-1.1.7h-.5l-.4.5v.6l1.3-.3-.2.4-1.3.5-.6.5-1 .4-1-.4-.3.2-.2.4-1-.4-1 .2-.4-.3-.3-.5-.8-.6v.6l.5.2.4.6-1.2.4v.3l.6.2-.2.4-.8-.3h-1l-1-1-.4-.1-.4-1.2h-1v.6l-.6-.5-.5-.2h-1l-1.4-.2-.4.2-.3.5-.9.3v.5l-.6.3-.8-.2-.5-.2-1.7-.3-.7-.4h-.8l-.5.7-1-.1-.2-1.8.4-.9 1.4-.6.7.1-.1-1-.8-.4-1.3-.3.6-.7-.2-.5.3-.6h.7v-.4l-.8-.4.2-1 .6-.4.2-.6-.3-1.4.3-.1.3-.8-.2-1 .6-.7.9-1v-.4l-.2-.7-1-.6v-.9l-.2-.8-.5-.7v-.5l-.5-1-.9-.2-1.3-.3-.7-1.2-.5-1.3-.4-.3-.4-1 .6-.4 1.9-.4 1.8-.9.4-.4 1.3-.7.5-.4v-.8l-.3-1.3-.4-.6v-1l.4-.5.5-.2.6-.8.8-.3 2.2-.3Z" class="map-bkgrd"/>
    <path d="M945.5 384.3h.2l.6.2h.3l.1.3h.5l-.1-.4.2-.1.6.6.3.5.4.2.4.3.6.5h.6l.3-.4h.5l.2-.4h1.3l.2-.2h.5l.2.2h1.2l.3-.1h.2l.2.3h1l.5-.4.2.2h.3l.4.3-.5.4h-.3l-.3.1h-.9l-.5.7h-.2l-.9.3-.2.3-.3.1h-.6l-.6.2-.2.3h-.4l-.7.2-.1.2-.4.1h-.4l-.2.2-.3-.1-.5.4-.7-.3h-.5l-.2.5-.3-.4h-.2l-.2.3-.2-.1-.3.2-.1.4-.5-.3-.5-.1h-.4l-.2.2-.3-.1-.9.3h-.3l-1 .5-.4-.3h-1.4l-.5.1h-.3l-.5.2-.5.4-.1-.2v-.2l.6-.6.3-.6.1-.5v-.4l-.3-1.1-.3-.6.3-1 .4-.3.5-.2 1 .3h.5l.4.2 1.2-.4.4-.2.2-.4h.5l1-.3Z" class="map-bkgrd"/>
    <path d="M954.6 383.8h.4l-.4.4-.3-.2.3-.2Z" class="map-bkgrd"/>
    <path d="m942.6 352.6.2.3-.4.4v-.3l.2-.4Z" class="map-bkgrd"/>
    <path d="m936 351.9.1.1v.5h-.3l-.2.1-.1.6h-.3l-.2-.4.3-.1v-.3l.2-.1.3-.4h.2Z" class="map-bkgrd"/>
    <path d="m936.3 351.5.5.6-.2.2-.2-.2v-.6Z" class="map-bkgrd"/>
    <path d="m928.5 351 .1.3-.2.3-.2-.3.3-.3Z" class="map-bkgrd"/>
    <path d="M940.4 350h.7v.3h-.5l-.2-.3Z" class="map-bkgrd"/>
    <path d="m947.3 349.3.6.2v.3l1.1-.2.4.1v.2h.7l.4.2v.2l.4.2v.2l.3-.1.8.4-.4.5-.1.3-.4-.2.2-.4-.4-.4h-.3l-.1.2-.3-.3-.1-.3-.4-.1-.2.5.2.3h-.3v-.2h-.5l.2.3v.3h.3l.2.3h.2v.3l.2.3-.3.1v.4l.1.5h-.3l-.2-.3-.1.1-.4-.3h-.3l.2-.4-.4-.1-.3.1h-.4l-.5-.3-.3.3-.3.1-.2-.2-.2-.1-.1.2-.3-.1-.1.2h-.5l-.4.1v-.1l-.5-.7.3-.3-.3-.2.7-.3.1-.4.3.2.2-.2v-.3l.4.1.2-.2.3.2.4-.2v-.1h.4l.1-.2v-.4h-.3v-.3h.3Z" class="map-bkgrd"/>
    <path d="m936.3 348.8.1.1.6.3.2.3.4.1v.2h.6l.4.2h.4l.2.3 1 .3v.3h.4l.3.5.2-.1.2.3.2.2v.4l.3.3-.3.3-.4-.1-.2-.2-.4.1-.2-.1-.5.2h-.2l.3.6-.1.2-.3-.3h-.2l-.3-.3h-.3l-.1.2-.3-.2-.5-.2-.5-.4-.2-.5.2-.2-.1-.2-.6-.1-.4.1v.2h-.7l-.5.6-.2-.1v-.5h-.3l-.4-.1v-.4l-.4-.1-.2-.2-.4-.2-.4.4h-.3l-.3.2-.1-.2-.7.3-.8-.6.3-.1.3-.5h.7l.6-.1.1-.3.6.3.2-.6h1l.4.2.1-.2.6.2.3-.2.4.2v.3l.8.3.3-.5-.2-.1-.6-.6-.1-.2Z" class="map-bkgrd"/>
    <path d="m934.3 348.5.3.2v.3l-.3-.1v-.4Z" class="map-bkgrd"/>
    <path d="m934.2 347.6.4.6h-.2l-.2-.6Z" class="map-bkgrd"/>
    <path d="m937.6 347.4.5.1.4.7-.5.3-.3-.5v-.6Z" class="map-bkgrd"/>
    <path d="m938 347 .3.1v.3l-.4-.1.1-.3Z" class="map-bkgrd"/>
    <path d="m42.4 481.6-.2.1-.2.1v-.1h.2l.3-.3v.2Z" class="map-bkgrd"/>
    <path d="M58.4 460.8h.3l.2.1.1.1h.3l.2.2v.2l-.3.3-.1.2-.3.7-.1.2-.2.2h-.1l-.2.5v.4l-.1.2-.3.4-.2.4-.1.3-.2.2-.1.4-.3.3h-.2l-.3.1H56l-.3.2v.2h-.2l-.2.4v.1l-.3.4h-.4l-.3.2v.1l-.4.4-.1.1-.2.2-.2.3-.2.1h-.1l-.2.2h-.1l-.2.2-.2.2-.2.3H52v.2h-.4l-.4.4-.2.4h-.2v-.2l-.2.1h-.3l-.2.2v.7l-.2.1v.2l-.1.1v.2l-.2.2-.2.2h-.1v.4l-.1.3-.1.3-.1.2-.1.3-.1.2h-.1v.4l-.1.5-.1.5-.1.2v.4h-.2l-.1-.1h-.2v.1l.3.1v.6l-.2.5v.2l-.2.5v.4l-.2.3v.2l-.2.2h-.2v.4l-.1.2h-.2v.2l-.2.1-.1.1-.1-.3v.4l-.1.1h-.2l-.2.3v.2h-.2v.1l-.2.2-.2.3-.2.1v.2H45v-.3h-.8l-.2-.2-.1-.1h-.1v-.5l-.1.1h-.3v-.6l-.1-.2-.2-.3v-.2l.1-.3v-.4l.1-.3v-.6l.2-.2v-1.2h.1v-.3l-.1-.1v-.2l.2-.4h-.1v-.8h-.2l-.1-.3h.1l.3-.4v-.2l.4-.6v-.2h.1l.2-.4v-.3l.3-.5.3-.2v-.2l.3-.4V470H45v-.3h-.1l-.1-.3v-.8l-.2-.3-.1-.1-.1-.2v-.4l.2-.1h.1l.1.4.3.2h.7l.2.1v.3h-.1l-.1.2-.1.3v.9h.2l.2-.5h.1l.1-.6v-.1H46l.1-.4h.2v-.1h.1v.4h.2l.1-.2.1-.3v-.2l.1-.1v-.2h-.2l-.1.1-.3-.1v-.2h.1l.6.2v-.2l.2-.1v-.1H47l-.2.2-.4-.2h-.1v-.2l-.1-.1H46l-.4-.2h-.3l.9.2.3.2h.4l.3-.1v.2h.1l.3-.1.2-.1.1-.1.1-.3.2.1.2.1h.2l.2-.2h.1l.4.1.1.2h.3l.1-.1h.1v.2h.6l.2-.4.1-.1v-.8l.1-.3.2-.1h.4l.1.1v.2h.4l.1-.1.1-.1.1-.2.1-.2.2-.2-.1-.2v-.3l.2-.3v-.4l.3-.3v-.2l.2-.2v-.2l.2-.2.2-.2.1-.2.2-.3v-.2l.2-.1.2-.2h.1v-.2l.2-.3.1-.1.2-.3v-.2l.1-.2v-.3l.1-.2v-.4l.3-.9.2-.2.5-.5.3-.7.2-.2.2-.1h.2l.1.2.2.4.1.4.1.6v.3l.1.2.1.4v1.3l.3.2.4.3Z" class="map-bkgrd"/>
    <path d="M18.8 537.4h.4v.1H19l-.1.1h-.4v-.2h.3Z" class="map-bkgrd"/>
    <path d="M14.2 536.5v.2h1.9l.1.1h.5v.1h.8v-.2h.8v.1l.1.1v.2l-.2.1h-.6l-.2.1-.3.1H17l-.3.1h-.5l-.2-.1h-.4l-.1.1h-.6v.1h-.4v-.1h-.1v-.4h-1.3.1l.3.1h.3v.1h.2v.1h-.2v.1l.1.1v.1h-.4v.1h-.2v.1l-.2.1-.1.2v.1l-.4.2h-.2l-.2.1v.2H12l-.1.1h-.1l-.1.1-.2.2h-.2v-.1H11v.2h-.2v-.2H10v-.2l-.1-.1v-.2h-.1v-.1H9v-.2h-.3v.1h-.6l-.1-.1h-.2l-.1-.1h.2l.1-.1v-.1l.3-.1.2-.2.1.1h.2v-.1H9l.1-.1h.2l.1-.1h.6v.1h.5l.1-.1h.4l.1.1h.7v-.2h.5v-.2l.2-.1.1-.1v-.1h.4v-.2h.6v-.1h.4l.3-.2Z" class="map-bkgrd"/>
    <path d="M61.8 535.6h.4v1h-1l-.2-.1h-.8l-.1.1-.1.1-.2.2h-.1l-.1.1h-.4l-.1-.1v-.2l-.2-.1v-.2h-.2l-.2-.1-.1-.1v-.2h-.1v-.1h.4l.2-.2.1.1h1.7l.1-.1h1Z" class="map-bkgrd"/>
    <path d="M52 534.6v.1Z" class="map-bkgrd"/>
    <path d="M52.2 534.5h.4l.1.1h1.1v.1h-.3l-.1.1h-.2v.1l-.2.1h-.7l-.1-.3v-.2Z" class="map-bkgrd"/>
    <path d="M54.8 534.4v.3l.2.2v.1l-.2.2h-.1l-.1-.1-.2-.1-.1-.1v-.1l-.3-.1h.3l.2-.1.1-.2h.2Z" class="map-bkgrd"/>
    <path d="m.4 464.5-.2.1H0v-.2h.4l-.3.1h.3Z" class="map-bkgrd"/>
    <path d="m65.2 428.1.3.1h.3v.2h.3l.2.1.2.1v.2l-.1.2-.1.1v.3h-.1l-.2.1-.2.1h-.2l-.2-.1h-.5l-.3.1h-.1v.4l-.2.1h-.1l-.2.2h-1l-.1-.1h-.5v-.4l-.1-.2-.3-.2-.2-.1h-.2l-.2.3h-.1l-.2.1H61v-.2h.5l.1-.1.2-.1.2-.1v-.2h.1l.3-.2h.1v-.2h.4l.1.1h1l.1-.1.2-.1h.2v-.1h.3l.1-.1h.4Z" class="map-bkgrd"/>
    <path d="M78.8 411.8h.1v.4h-.1l-.2.1h-.9v-.3h.4l.3-.1h.4Z" class="map-bkgrd"/>
    <path d="m82.5 406.5-.1.2v.3l-.1.2h-.1l-.2.1v.7l.1.1h.3v.2l.1.1v.4l-.1.2-.1.2h-.1v.4l-.2.1v.5h-.3l-.1.1v.1l-.2.1v.2h-.5v-.7l.1-.1v-.3h-.1l-.2-.2-.1-.1v-.7H80l-.1-.2h-.1v-.2l.1-.2v-.5l.2-.1v-.2h.2l.1-.1v-.2l.2-.1.3-.2.1-.1h.1v-.2h.2l.2-.1.2-.1.2-.2.2-.1.1.1.1.2v.2h.1v.2Z" class="map-bkgrd"/>
    <path d="M88.4 401.7h.1l.1.4h.1v.3H88v.4h-.1v.1l-.1.1h-.1l-.2.2h-.2l-.1.1H87v.1l-.2.1v.4h-.2v.4l.2.1v.3l.2.1v.3h-.2v.2h-.2l-.2-.1-.1-.2v-.1l-.2-.1h-.4v.1h-.1v.1l-.2.2v.5l.2.1v.3l-.1.2-.1.2-.1.1v-.2l-.1-.2H85l-.3-.1-.2-.1h-.4v-.2l-.2-.1-.1-.2h-.2.1l.1-.1v-.1l.2-.2.2-.3v-.2l.1-.1.1-.1.1-.1.2-.3v-.2l.2-.2v-.6h.5l.2-.1h.1v-.1h.2v-.2h.5l.3-.1h.2l.2-.1.2-.1v-.1h.1v-.1l.2-.1h.1v-.1h.2l.1-.2h.2v-.1h.2Z" class="map-bkgrd"/>
    <path d="M100 383h.1l.2-.2v-.1.3h-.2Z" class="map-bkgrd"/>
    <path d="m91 370.9.2.1.1.1v.3l-.1.2H91l-.1.1h-1v-.1h-.5v-.1H89v-.1l-.1-.1v-.2l-.1-.1v-.4l.2-.1h.7l.3.2h.8l.1.1Z" class="map-bkgrd"/>
    <path d="M95.5 362.5h-.1v-.1h-.2l-.1-.2v-.1l-.1-.2.2-.1.2-.1h.1v.1h.1v.7h-.1Z" class="map-bkgrd"/>
    <path d="m100.6 345.9-.2-.2v-.4l.1-.1h.2l.1.2.1.2-.1.2h-.2Z" class="map-bkgrd"/>
    <path d="M102.2 338h-.3l-.1-.2-.1-.1v-.4l.2-.1v-.1l.1-.1h.4v.2h.1l.2.3v.2l-.1.2h-.3v.2h-.1Z" class="map-bkgrd"/>
    <path d="M103.7 321.3h.1l.1.1.2.1v.1l.1.2v.7h-.2v.2l-.2.2-.1.1h-.1v.1h-.1l-.1-.2h-.4l-.2.1h-.1l-.2.1v.1l-.3.3-.2.1-.1.1v.1l-.1.1-.2.2h-.1l-.1.1h-.2l-.1.1h-.3v-.1l.2-.4v-.2l.2-.1.2-.2h.6l.1-.1.2-.1h.1l.1-.2v-.4h.1v-.2h.1v-.2h.1v-.4l-.1-.1v-.2l.2-.1.1-.1h.7Z" class="map-bkgrd"/>
    <path d="M103.6 302.7h.1l.1.1.2.1v.2l.2.1.1.1v.9h-.1l-.1.1v.4h-.1l-.2.1h-.4l-.1.1v.1h-.3l-.3-.3v-.3l-.2-.2v-.9h.1v-.3l.3-.1v-.2h.5Z" class="map-bkgrd"/>
    <path d="M101.1 277.4h-.2l-.2-.2v-.3l.1-.2.2-.1h.4v.1l.2.2v.4l-.2.1-.2.1Z" class="map-bkgrd"/>
    <path d="M97.8 266v.1h-.2v-.2l.2.2Z" class="map-bkgrd"/>
    <path d="M98.2 266.2v-.2l.1-.2h.1v.3h-.1Z" class="map-bkgrd"/>
    <path d="M98.2 265.6h-.4.2Z" class="map-bkgrd"/>
    <path d="M91.8 249.8h-.1l-.1-.2v-.2l.1-.1h.3v.4h-.2Z" class="map-bkgrd"/>
  </g>
</svg>
